{"glyphs":{"0":{"ha":980,"x_min":75,"x_max":905,"o":"m 153 488 q 494 54 153 54 q 827 488 827 54 q 494 916 827 916 q 153 488 153 916 m 75 484 q 494 977 75 977 q 905 484 905 977 q 494 -7 905 -7 q 75 484 96 -7 z "},"1":{"ha":410,"x_min":75,"x_max":248,"o":"m 176 0 l 176 889 l 75 889 l 75 929 l 248 977 l 248 0 l 176 0 z "},"2":{"ha":834,"x_min":75,"x_max":739,"o":"m 75 0 l 75 61 q 668 692 668 473 q 383 916 668 916 q 102 841 234 916 l 102 909 q 383 977 234 977 q 739 692 739 977 q 180 61 739 441 l 739 61 l 739 0 l 75 0 z "},"3":{"ha":787,"x_min":75,"x_max":695,"o":"m 75 936 q 346 977 210 977 q 695 712 695 977 q 534 492 695 538 q 695 271 695 448 q 346 -7 695 -7 q 75 34 210 -7 l 75 102 q 346 54 210 54 q 624 271 624 54 q 399 461 624 461 l 176 461 l 176 522 l 397 522 q 624 712 624 522 q 346 916 624 916 q 75 868 210 916 l 75 936 z "},"4":{"ha":827,"x_min":41,"x_max":777,"o":"m 669 0 l 598 0 l 598 231 l 41 231 l 41 292 l 465 970 l 542 970 l 117 292 l 598 292 l 598 677 l 669 677 l 669 292 l 777 267 l 777 231 l 669 231 l 669 0 z "},"5":{"ha":777,"x_min":78,"x_max":709,"o":"m 112 970 l 671 970 l 671 909 l 172 909 l 149 555 q 363 570 275 570 q 709 298 709 570 q 349 -7 709 -7 q 78 34 214 -7 l 78 102 q 356 54 214 54 q 637 298 637 54 q 363 509 637 509 q 78 475 210 509 l 112 970 z "},"6":{"ha":848,"x_min":75,"x_max":780,"o":"m 75 373 q 521 999 75 750 l 552 947 q 183 581 254 768 q 425 624 306 624 q 780 319 780 624 q 432 -7 780 -7 q 75 373 75 -7 m 139 377 q 438 54 139 54 q 711 319 711 54 q 425 563 711 563 q 165 517 280 563 q 139 377 139 469 z "},"7":{"ha":770,"x_min":75,"x_max":732,"o":"m 75 970 l 732 970 l 732 909 l 283 0 l 201 0 l 657 909 l 75 909 l 75 970 z "},"8":{"ha":854,"x_min":75,"x_max":780,"o":"m 75 288 q 245 505 75 452 q 102 731 102 563 q 427 979 102 979 q 753 731 753 979 q 606 505 753 563 q 780 288 780 452 q 427 -7 780 -7 q 75 288 75 -7 m 431 536 q 682 718 682 536 q 422 916 682 916 q 173 718 173 916 q 431 536 173 536 m 431 54 q 709 283 709 54 q 422 475 709 475 q 146 283 146 475 q 431 54 146 54 z "},"9":{"ha":821,"x_min":75,"x_max":780,"o":"m 780 599 q 334 -27 780 222 l 296 25 q 671 391 600 203 q 430 348 549 348 q 75 653 75 348 q 422 979 75 979 q 780 599 780 979 m 715 595 q 416 918 715 918 q 143 653 143 918 q 429 409 143 409 q 690 455 574 409 q 715 595 715 503 z "}," ":{"ha":339,"x_min":0,"x_max":0,"o":""},"!":{"ha":288,"x_min":109,"x_max":180,"o":"m 180 970 l 180 251 l 109 251 l 109 970 l 180 970 m 180 71 l 180 0 l 109 0 l 109 71 l 180 71 z "},"\"":{"ha":424,"x_min":75,"x_max":349,"o":"m 349 970 l 329 675 l 292 675 l 271 970 l 349 970 m 153 970 l 132 675 l 95 675 l 75 970 l 153 970 z "},"#":{"ha":1291,"x_min":75,"x_max":1216,"o":"m 497 614 l 422 317 l 732 317 l 807 614 l 497 614 m 273 -3 l 340 254 l 75 254 l 88 317 l 354 317 l 428 614 l 156 614 l 170 678 l 442 678 l 517 966 l 585 966 l 510 678 l 821 678 l 897 970 l 964 970 l 889 678 l 1216 678 l 1202 614 l 876 614 l 802 317 l 1135 317 l 1121 254 l 787 254 l 720 -3 l 652 -3 l 720 254 l 409 254 l 341 -3 l 273 -3 z "},"$":{"ha":699,"x_min":75,"x_max":624,"o":"m 325 840 l 325 970 l 389 970 l 389 841 q 604 807 494 838 l 604 739 q 371 780 485 780 q 146 637 146 780 q 298 515 146 515 l 387 515 q 624 332 624 515 q 389 132 624 151 l 389 0 l 325 0 l 325 129 q 95 163 212 130 l 95 231 q 328 190 214 190 q 553 332 553 190 q 387 448 553 448 l 298 448 q 75 637 75 448 q 325 840 75 825 z "},"%":{"ha":924,"x_min":75,"x_max":849,"o":"m 159 0 l 75 0 l 764 970 l 849 970 l 159 0 m 142 802 q 263 682 142 682 q 381 802 381 682 q 263 920 381 920 q 142 802 142 920 m 75 800 q 263 977 75 977 q 449 800 449 977 q 263 625 449 625 q 75 800 75 625 m 543 170 q 663 50 543 50 q 781 170 781 50 q 663 288 781 288 q 543 170 543 288 m 475 169 q 663 345 475 345 q 849 169 849 345 q 663 -7 849 -7 q 475 169 475 -7 z "},"&":{"ha":878,"x_min":75,"x_max":871,"o":"m 75 709 q 420 970 75 970 q 665 936 546 970 l 665 875 q 422 909 539 909 q 146 712 146 909 q 373 522 146 522 l 690 522 l 690 639 l 740 639 l 755 522 l 871 522 l 871 461 l 762 461 l 762 332 q 410 -2 762 -2 q 75 267 75 -2 q 226 493 75 435 q 75 709 75 537 m 374 461 q 146 271 146 461 q 404 61 146 61 q 690 334 690 61 l 690 461 l 374 461 z "},"'":{"ha":227,"x_min":75,"x_max":153,"o":"m 153 970 l 132 675 l 95 675 l 75 970 l 153 970 z "},"(":{"ha":356,"x_min":75,"x_max":281,"o":"m 281 970 q 146 356 146 663 q 281 -258 146 49 l 210 -258 q 75 356 75 49 q 210 970 75 663 l 281 970 z "},")":{"ha":356,"x_min":75,"x_max":281,"o":"m 146 970 q 281 356 281 663 q 146 -258 281 49 l 75 -258 q 210 356 210 49 q 75 970 210 663 l 146 970 z "},"*":{"ha":563,"x_min":75,"x_max":489,"o":"m 229 970 l 335 970 l 315 812 l 456 881 l 489 781 l 334 752 l 442 637 l 359 574 l 282 713 l 205 575 l 121 635 l 231 751 l 75 780 l 107 882 l 250 812 l 229 970 z "},"+":{"ha":658,"x_min":75,"x_max":583,"o":"m 298 387 l 298 610 l 366 610 l 366 387 l 583 387 l 583 326 l 366 326 l 366 102 l 298 102 l 298 326 l 75 326 l 75 387 l 298 387 z "},",":{"ha":207,"x_min":17,"x_max":190,"o":"m 190 125 l 88 -170 l 17 -170 l 119 125 l 190 125 z "},"-":{"ha":488,"x_min":75,"x_max":414,"o":"m 414 387 l 414 326 l 75 326 l 75 387 l 414 387 z "},".":{"ha":241,"x_min":75,"x_max":166,"o":"m 166 85 l 166 0 l 75 0 l 75 85 l 166 85 z "},"/":{"ha":668,"x_min":24,"x_max":593,"o":"m 102 0 l 24 0 l 515 970 l 593 970 l 102 0 z "},":":{"ha":268,"x_min":102,"x_max":193,"o":"m 193 712 l 193 627 l 102 627 l 102 712 l 193 712 m 193 85 l 193 0 l 102 0 l 102 85 l 193 85 z "},";":{"ha":370,"x_min":75,"x_max":261,"o":"m 248 125 l 146 -170 l 75 -170 l 176 125 l 248 125 m 261 712 l 261 627 l 170 627 l 170 712 l 261 712 z "},"<":{"ha":760,"x_min":75,"x_max":685,"o":"m 75 319 l 75 393 l 685 678 l 685 604 l 134 353 l 685 109 l 685 34 l 75 319 z "},"=":{"ha":658,"x_min":75,"x_max":583,"o":"m 583 285 l 583 224 l 75 224 l 75 285 l 583 285 m 583 488 l 583 427 l 75 427 l 75 488 l 583 488 z "},">":{"ha":760,"x_min":75,"x_max":685,"o":"m 75 34 l 75 109 l 626 353 l 75 604 l 75 678 l 685 393 l 685 319 l 75 34 z "},"?":{"ha":770,"x_min":75,"x_max":695,"o":"m 275 71 l 275 0 l 203 0 l 203 71 l 275 71 m 75 936 q 346 970 217 970 q 695 705 695 970 q 358 441 695 441 l 275 441 l 275 251 l 203 251 l 203 502 l 356 502 q 624 705 624 502 q 346 909 624 909 q 75 875 217 909 l 75 936 z "},"@":{"ha":1472,"x_min":109,"x_max":1363,"o":"m 1010 66 q 1112 -41 1010 -41 q 1292 366 1292 -41 q 745 916 1292 916 q 180 366 180 916 q 699 -197 180 -197 l 699 -258 q 109 366 109 -258 q 735 977 109 977 q 1363 366 1363 977 q 1107 -102 1363 -102 q 939 71 939 -102 q 692 0 817 0 q 451 201 451 0 q 726 414 451 414 q 939 400 826 414 l 939 488 q 734 651 939 651 q 509 617 624 651 l 509 678 q 734 712 624 712 q 1010 491 1010 712 l 1010 66 m 726 353 q 522 203 522 353 q 692 61 522 61 q 939 130 822 61 l 939 339 q 726 353 826 353 z "},"A":{"ha":1012,"x_min":24,"x_max":988,"o":"m 100 0 l 24 0 l 463 970 l 547 970 l 988 0 l 903 0 l 760 326 l 325 326 l 346 387 l 733 387 l 500 914 l 100 0 z "},"B":{"ha":902,"x_min":109,"x_max":811,"o":"m 109 0 l 109 970 l 522 970 q 799 744 799 970 q 598 507 799 578 q 811 280 811 471 q 508 0 811 0 l 109 0 m 500 61 q 735 278 735 61 q 441 470 735 470 l 387 470 l 387 518 q 726 739 726 549 q 517 909 726 909 l 180 909 l 180 61 l 500 61 z "},"C":{"ha":953,"x_min":75,"x_max":854,"o":"m 854 34 q 583 -7 722 -7 q 75 498 75 -7 q 583 977 75 977 q 854 936 722 977 l 854 875 q 597 916 722 916 q 146 498 146 916 q 597 54 146 54 q 854 95 722 54 l 854 34 z "},"D":{"ha":997,"x_min":109,"x_max":929,"o":"m 448 61 q 851 511 851 61 q 448 909 851 909 l 180 909 l 180 61 l 448 61 m 109 0 l 109 970 l 454 970 q 929 511 929 970 q 448 0 929 0 l 109 0 z "},"E":{"ha":846,"x_min":109,"x_max":755,"o":"m 745 970 l 745 909 l 180 909 l 180 522 l 722 522 l 722 461 l 180 461 l 180 61 l 755 61 l 755 0 l 109 0 l 109 970 l 745 970 z "},"F":{"ha":796,"x_min":109,"x_max":745,"o":"m 745 970 l 745 909 l 180 909 l 180 522 l 722 522 l 722 461 l 180 461 l 180 0 l 109 0 l 109 970 l 745 970 z "},"G":{"ha":953,"x_min":75,"x_max":854,"o":"m 854 38 q 595 -7 730 -7 q 75 498 75 -7 q 583 977 75 977 q 854 936 722 977 l 854 875 q 597 916 722 916 q 146 498 146 916 q 584 54 146 54 q 783 84 673 54 l 783 441 l 854 441 l 854 38 z "},"H":{"ha":1021,"x_min":109,"x_max":912,"o":"m 109 0 l 109 970 l 180 970 l 180 522 l 841 522 l 841 970 l 912 970 l 912 0 l 841 0 l 841 461 l 180 461 l 180 0 l 109 0 z "},"I":{"ha":356,"x_min":142,"x_max":214,"o":"m 214 970 l 214 0 l 142 0 l 142 970 l 214 970 z "},"J":{"ha":441,"x_min":24,"x_max":332,"o":"m 332 970 l 332 279 q 24 0 332 0 l 24 61 q 261 279 261 61 l 261 970 l 332 970 z "},"K":{"ha":882,"x_min":109,"x_max":861,"o":"m 180 970 l 180 0 l 109 0 l 109 970 l 180 970 m 845 970 l 383 511 l 861 0 l 755 0 l 312 487 l 312 529 l 747 970 l 845 970 z "},"L":{"ha":775,"x_min":109,"x_max":741,"o":"m 180 970 l 180 61 l 741 61 l 741 0 l 109 0 l 109 970 l 180 970 z "},"M":{"ha":1200,"x_min":109,"x_max":1092,"o":"m 109 0 l 109 970 l 180 970 l 617 83 l 1027 970 l 1092 970 l 1092 0 l 1027 0 l 1027 839 l 642 0 l 584 0 l 173 846 l 173 0 l 109 0 z "},"N":{"ha":1021,"x_min":109,"x_max":912,"o":"m 109 0 l 109 970 l 200 970 l 848 121 l 848 970 l 912 970 l 912 0 l 854 0 l 173 890 l 173 0 l 109 0 z "},"O":{"ha":1116,"x_min":75,"x_max":1041,"o":"m 153 488 q 562 54 153 54 q 963 488 963 54 q 562 916 963 916 q 153 488 153 916 m 75 484 q 562 977 75 977 q 1041 484 1041 977 q 562 -7 1041 -7 q 75 484 75 -7 z "},"P":{"ha":857,"x_min":109,"x_max":799,"o":"m 109 0 l 109 970 l 515 970 q 799 703 799 970 q 345 369 799 441 l 333 434 q 720 698 720 488 q 504 907 720 907 l 180 907 l 180 0 l 109 0 z "},"Q":{"ha":1116,"x_min":75,"x_max":1041,"o":"m 153 488 q 562 61 153 61 q 963 488 963 61 q 562 916 963 916 q 153 488 153 916 m 75 484 q 562 977 75 977 q 1041 484 1041 977 q 678 -2 1041 78 l 856 -205 l 792 -252 l 582 -7 q 75 484 75 -7 z "},"R":{"ha":838,"x_min":109,"x_max":814,"o":"m 109 0 l 109 970 l 509 970 q 772 737 772 970 q 486 452 772 536 l 814 0 l 716 0 l 394 450 l 394 498 q 692 732 692 542 q 497 907 692 907 l 180 907 l 180 0 l 109 0 z "},"S":{"ha":888,"x_min":75,"x_max":814,"o":"m 102 34 l 102 109 q 438 54 254 54 q 743 285 743 54 q 545 454 743 454 l 345 454 q 75 699 75 454 q 471 977 75 977 q 787 936 634 977 l 787 868 q 471 916 634 916 q 146 699 146 916 q 345 522 146 522 l 545 522 q 814 285 814 522 q 438 -7 814 -7 q 102 34 254 -7 z "},"T":{"ha":743,"x_min":7,"x_max":736,"o":"m 736 970 l 736 909 l 404 909 l 404 0 l 332 0 l 332 909 l 7 909 l 7 970 l 736 970 z "},"U":{"ha":997,"x_min":109,"x_max":888,"o":"m 109 374 l 109 970 l 180 970 l 180 374 q 498 54 180 54 q 817 374 817 54 l 817 970 l 888 970 l 888 374 q 498 -7 888 -7 q 109 374 109 -7 z "},"V":{"ha":1012,"x_min":24,"x_max":988,"o":"m 988 970 l 563 0 l 451 0 l 24 970 l 102 970 l 509 55 l 912 970 l 988 970 z "},"W":{"ha":1267,"x_min":24,"x_max":1211,"o":"m 24 970 l 98 970 l 256 68 l 569 970 l 640 970 l 962 60 l 1142 970 l 1211 970 l 1015 0 l 911 0 l 605 886 l 298 0 l 197 0 l 24 970 z "},"X":{"ha":895,"x_min":24,"x_max":871,"o":"m 406 485 l 24 970 l 109 970 l 448 538 l 787 970 l 871 970 l 490 485 l 871 0 l 787 0 l 448 431 l 109 0 l 24 0 l 406 485 z "},"Y":{"ha":848,"x_min":24,"x_max":824,"o":"m 24 970 l 109 970 l 422 407 l 746 970 l 824 970 l 460 339 l 460 0 l 389 0 l 389 339 l 24 970 z "},"Z":{"ha":861,"x_min":92,"x_max":770,"o":"m 770 970 l 770 909 l 182 61 l 756 61 l 756 0 l 92 0 l 92 54 l 698 909 l 105 909 l 105 970 l 770 970 z "},"[":{"ha":383,"x_min":109,"x_max":359,"o":"m 359 970 l 359 909 l 173 909 l 173 -197 l 359 -197 l 359 -258 l 109 -258 l 109 970 l 359 970 z "},"\\":{"ha":668,"x_min":24,"x_max":593,"o":"m 24 970 l 102 970 l 593 0 l 515 0 l 24 970 z "},"]":{"ha":383,"x_min":24,"x_max":275,"o":"m 275 970 l 275 -258 l 24 -258 l 24 -197 l 210 -197 l 210 909 l 24 909 l 24 970 l 275 970 z "},"^":{"ha":726,"x_min":41,"x_max":685,"o":"m 312 970 l 414 970 l 685 475 l 610 475 l 360 931 l 115 475 l 41 475 l 312 970 z "},"_":{"ha":726,"x_min":24,"x_max":702,"o":"m 702 0 l 702 -61 l 24 -61 l 24 0 l 702 0 z "},"`":{"ha":355,"x_min":68,"x_max":287,"o":"m 287 808 l 230 808 l 68 970 l 176 970 l 287 808 z "},"a":{"ha":743,"x_min":68,"x_max":634,"o":"m 68 201 q 350 414 68 414 q 563 400 450 414 l 563 488 q 357 651 563 651 q 132 617 248 651 l 132 678 q 357 712 248 712 q 634 491 634 712 l 634 0 l 591 0 l 574 71 q 315 0 441 0 q 68 201 68 0 m 350 353 q 139 203 139 353 q 315 61 139 61 q 563 130 446 61 l 563 339 q 350 353 450 353 z "},"b":{"ha":799,"x_min":109,"x_max":724,"o":"m 180 83 q 377 64 289 64 q 655 375 655 64 q 399 644 655 644 q 180 608 302 644 l 180 83 m 109 970 l 180 970 l 180 678 q 400 712 308 712 q 724 370 724 712 q 383 0 724 0 q 109 29 230 0 l 109 970 z "},"c":{"ha":682,"x_min":75,"x_max":624,"o":"m 624 20 q 434 0 536 0 q 75 370 75 0 q 434 712 75 712 q 624 692 536 712 l 624 631 q 441 651 529 651 q 153 370 153 651 q 441 61 153 61 q 624 81 529 61 l 624 20 z "},"d":{"ha":807,"x_min":75,"x_max":699,"o":"m 627 608 q 413 644 524 644 q 151 375 151 644 q 413 64 151 64 q 627 90 524 64 l 627 608 m 699 43 q 406 0 583 0 q 75 370 75 0 q 412 712 75 712 q 627 678 518 712 l 627 970 l 699 970 l 699 43 z "},"e":{"ha":762,"x_min":75,"x_max":688,"o":"m 395 712 q 688 389 688 712 q 686 340 688 366 l 146 340 q 441 61 146 61 q 657 95 563 61 l 657 34 q 441 0 563 0 q 75 364 75 0 q 395 712 75 712 m 146 404 l 619 404 q 395 652 615 652 q 146 404 158 652 z "},"f":{"ha":472,"x_min":109,"x_max":553,"o":"m 109 0 l 109 747 q 395 1005 109 1005 q 553 978 482 1005 l 553 917 q 394 944 486 944 q 180 745 180 944 l 180 712 l 448 712 l 448 651 l 180 651 l 180 0 l 109 0 z "},"g":{"ha":805,"x_min":75,"x_max":696,"o":"m 625 632 q 432 648 527 648 q 144 361 144 648 q 413 68 144 68 q 625 104 511 68 l 625 632 m 696 0 q 382 -258 696 -258 q 149 -224 251 -258 l 149 -163 q 384 -197 253 -197 q 625 0 625 -197 l 625 34 q 412 0 505 0 q 75 360 75 0 q 437 712 75 712 q 696 683 575 712 l 696 0 z "},"h":{"ha":804,"x_min":109,"x_max":695,"o":"m 109 0 l 109 970 l 180 970 l 180 635 q 435 712 304 712 q 695 447 695 712 l 695 0 l 624 0 l 624 476 q 432 648 624 648 q 180 558 304 648 l 180 0 l 109 0 z "},"i":{"ha":315,"x_min":115,"x_max":200,"o":"m 200 970 l 200 888 l 115 888 l 115 970 l 200 970 m 193 712 l 193 0 l 122 0 l 122 712 l 193 712 z "},"j":{"ha":315,"x_min":37,"x_max":200,"o":"m 200 970 l 200 888 l 115 888 l 115 970 l 200 970 m 193 712 l 193 54 q 88 -250 193 -161 l 37 -205 q 122 54 122 -127 l 122 712 l 193 712 z "},"k":{"ha":750,"x_min":102,"x_max":716,"o":"m 102 0 l 102 970 l 173 970 l 173 650 q 446 712 297 712 q 699 507 699 712 q 475 294 699 351 l 716 0 l 612 0 l 385 295 l 385 338 q 627 507 627 366 q 431 651 627 651 q 173 587 300 651 l 173 0 l 102 0 z "},"l":{"ha":315,"x_min":122,"x_max":193,"o":"m 193 970 l 193 0 l 122 0 l 122 970 l 193 970 z "},"m":{"ha":1217,"x_min":109,"x_max":1109,"o":"m 109 0 l 109 712 l 159 712 l 167 623 q 404 712 276 712 q 621 614 572 712 q 870 712 744 712 q 1109 475 1109 712 l 1109 0 l 1038 0 l 1038 475 q 869 648 1038 648 q 648 556 735 648 l 648 0 l 576 0 l 576 487 q 403 648 576 648 q 180 556 277 648 l 180 0 l 109 0 z "},"n":{"ha":804,"x_min":109,"x_max":695,"o":"m 109 0 l 109 712 l 159 712 l 168 621 q 435 712 304 712 q 695 488 695 712 l 695 0 l 624 0 l 624 490 q 432 648 624 648 q 180 558 304 648 l 180 0 l 109 0 z "},"o":{"ha":814,"x_min":75,"x_max":739,"o":"m 146 359 q 407 54 146 54 q 668 359 668 54 q 407 658 668 658 q 146 359 146 658 m 75 356 q 407 719 75 719 q 739 356 739 719 q 407 -6 739 -6 q 75 356 76 -6 z "},"p":{"ha":798,"x_min":109,"x_max":724,"o":"m 180 104 q 378 68 288 68 q 654 375 654 68 q 380 648 654 648 q 180 632 285 648 l 180 104 m 109 683 q 381 712 230 712 q 724 374 724 712 q 379 0 724 0 q 180 34 294 0 l 180 -258 l 109 -258 l 109 683 z "},"q":{"ha":805,"x_min":75,"x_max":696,"o":"m 625 632 q 425 648 520 648 q 144 361 144 648 q 413 68 144 68 q 625 104 511 68 l 625 632 m 696 -258 l 625 -258 l 625 34 q 412 0 505 0 q 75 360 75 0 q 431 712 75 712 q 696 683 575 712 l 696 -258 z "},"r":{"ha":431,"x_min":109,"x_max":407,"o":"m 109 0 l 109 712 l 159 712 l 168 594 q 407 712 275 712 l 407 655 q 180 531 279 655 l 180 0 l 109 0 z "},"s":{"ha":699,"x_min":72,"x_max":624,"o":"m 95 34 l 95 102 q 328 61 214 61 q 553 203 553 61 q 387 319 553 319 l 296 319 q 72 509 72 319 q 368 712 72 712 q 601 678 482 712 l 601 610 q 368 651 482 651 q 143 509 143 651 q 296 387 143 387 l 387 387 q 624 203 624 387 q 328 0 624 0 q 95 34 214 0 z "},"t":{"ha":425,"x_min":106,"x_max":382,"o":"m 106 827 l 156 827 l 169 712 l 382 712 l 382 651 l 175 651 l 175 201 q 278 61 175 61 l 382 61 l 382 0 l 279 0 q 106 192 106 0 l 106 827 z "},"u":{"ha":804,"x_min":109,"x_max":695,"o":"m 695 712 l 695 0 l 643 0 l 635 91 q 361 0 512 0 q 109 265 109 0 l 109 712 l 180 712 l 180 263 q 364 64 180 64 q 624 154 499 64 l 624 712 l 695 712 z "},"v":{"ha":699,"x_min":7,"x_max":692,"o":"m 7 712 l 88 712 l 349 62 l 610 712 l 692 712 l 389 0 l 306 0 l 7 712 z "},"w":{"ha":1044,"x_min":41,"x_max":1003,"o":"m 41 712 l 113 712 l 267 86 l 492 712 l 545 712 l 777 100 l 933 712 l 1003 712 l 817 0 l 743 0 l 519 607 l 298 0 l 221 0 l 41 712 z "},"x":{"ha":685,"x_min":24,"x_max":661,"o":"m 300 356 l 24 712 l 109 712 l 342 411 l 576 712 l 661 712 l 385 356 l 661 0 l 576 0 l 342 301 l 109 0 l 24 0 l 300 356 z "},"y":{"ha":733,"x_min":24,"x_max":709,"o":"m 24 712 l 106 712 l 370 69 l 631 712 l 709 712 l 400 -21 q 164 -263 321 -215 l 143 -206 q 332 -11 267 -161 l 24 712 z "},"z":{"ha":692,"x_min":75,"x_max":617,"o":"m 88 712 l 617 712 l 617 651 l 165 61 l 604 61 l 604 0 l 75 0 l 75 61 l 532 651 l 88 651 l 88 712 z "},"{":{"ha":400,"x_min":75,"x_max":376,"o":"m 376 970 q 288 646 288 850 q 159 356 288 407 q 288 66 288 305 q 376 -258 288 -138 l 305 -258 q 217 66 217 -138 q 75 326 217 326 l 75 387 q 217 646 217 387 q 305 970 217 850 l 376 970 z "},"|":{"ha":288,"x_min":109,"x_max":180,"o":"m 180 970 l 180 -258 l 109 -258 l 109 970 l 180 970 z "},"}":{"ha":400,"x_min":24,"x_max":326,"o":"m 95 970 q 183 646 183 850 q 326 387 183 387 l 326 326 q 183 66 183 326 q 95 -258 183 -138 l 24 -258 q 112 66 112 -138 q 241 356 112 305 q 112 646 112 407 q 24 970 112 850 l 95 970 z "},"~":{"ha":658,"x_min":75,"x_max":583,"o":"m 75 373 q 184 414 114 414 q 322 387 243 414 q 463 359 401 359 q 583 400 536 359 l 583 339 q 473 298 544 298 q 336 326 415 298 q 195 353 256 353 q 75 312 121 353 l 75 373 z "},"Ä":{"ha":1012,"x_min":24,"x_max":988,"o":"m 100 0 l 24 0 l 463 970 l 547 970 l 988 0 l 903 0 l 760 326 l 325 326 l 346 387 l 733 387 l 500 914 l 100 0 m 661 1214 l 661 1126 l 569 1126 l 569 1214 l 661 1214 m 444 1214 l 444 1126 l 352 1126 l 352 1214 l 444 1214 z "},"Å":{"ha":1012,"x_min":24,"x_max":988,"o":"m 507 1005 q 598 1098 598 1005 q 507 1189 598 1189 q 414 1098 414 1189 q 507 1005 414 1005 m 100 0 l 24 0 l 460 966 q 359 1097 359 985 q 507 1232 359 1232 q 652 1097 652 1232 q 549 965 652 983 l 988 0 l 903 0 l 760 326 l 325 326 l 346 387 l 733 387 l 500 914 l 100 0 z "},"Ç":{"ha":953,"x_min":75,"x_max":854,"o":"m 524 -5 q 75 498 75 23 q 583 977 75 977 q 854 936 722 977 l 854 875 q 597 916 722 916 q 146 498 146 916 q 597 54 146 54 q 854 95 722 54 l 854 34 q 590 -7 726 -6 l 566 -52 q 718 -169 718 -52 q 554 -286 718 -286 q 408 -252 481 -286 l 408 -193 q 554 -233 481 -233 q 654 -169 654 -233 q 571 -105 654 -105 l 467 -105 l 524 -5 z "},"É":{"ha":846,"x_min":109,"x_max":755,"o":"m 745 970 l 745 909 l 180 909 l 180 522 l 722 522 l 722 461 l 180 461 l 180 61 l 755 61 l 755 0 l 109 0 l 109 970 l 745 970 m 470 1227 l 578 1227 l 416 1065 l 359 1065 l 470 1227 z "},"Ñ":{"ha":1021,"x_min":109,"x_max":912,"o":"m 109 0 l 109 970 l 200 970 l 848 121 l 848 970 l 912 970 l 912 0 l 854 0 l 173 890 l 173 0 l 109 0 m 341 1196 q 429 1227 382 1227 q 504 1210 465 1227 q 581 1192 543 1192 q 680 1223 632 1192 l 680 1162 q 592 1131 640 1131 q 517 1149 557 1131 q 440 1166 478 1166 q 341 1135 389 1166 l 341 1196 z "},"Ö":{"ha":1116,"x_min":75,"x_max":1041,"o":"m 153 488 q 562 54 153 54 q 963 488 963 54 q 562 916 963 916 q 153 488 153 916 m 75 484 q 562 977 75 977 q 1041 484 1041 977 q 562 -7 1041 -7 q 75 484 75 -7 m 712 1214 l 712 1126 l 621 1126 l 621 1214 l 712 1214 m 495 1214 l 495 1126 l 404 1126 l 404 1214 l 495 1214 z "},"Ü":{"ha":997,"x_min":109,"x_max":888,"o":"m 109 374 l 109 970 l 180 970 l 180 374 q 498 54 180 54 q 817 374 817 54 l 817 970 l 888 970 l 888 374 q 498 -7 888 -7 q 109 374 109 -7 m 653 1214 l 653 1126 l 562 1126 l 562 1214 l 653 1214 m 436 1214 l 436 1126 l 345 1126 l 345 1214 l 436 1214 z "},"á":{"ha":743,"x_min":68,"x_max":634,"o":"m 68 201 q 350 414 68 414 q 563 400 450 414 l 563 488 q 357 651 563 651 q 132 617 248 651 l 132 678 q 357 712 248 712 q 634 491 634 712 l 634 0 l 591 0 l 574 71 q 315 0 441 0 q 68 201 68 0 m 350 353 q 139 203 139 353 q 315 61 139 61 q 563 130 446 61 l 563 339 q 350 353 450 353 m 416 970 l 524 970 l 362 808 l 305 808 l 416 970 z "},"à":{"ha":743,"x_min":68,"x_max":634,"o":"m 68 201 q 350 414 68 414 q 563 400 450 414 l 563 488 q 357 651 563 651 q 132 617 248 651 l 132 678 q 357 712 248 712 q 634 491 634 712 l 634 0 l 591 0 l 574 71 q 315 0 441 0 q 68 201 68 0 m 350 353 q 139 203 139 353 q 315 61 139 61 q 563 130 446 61 l 563 339 q 350 353 450 353 m 465 808 l 408 808 l 245 970 l 353 970 l 465 808 z "},"â":{"ha":743,"x_min":68,"x_max":634,"o":"m 68 201 q 350 414 68 414 q 563 400 450 414 l 563 488 q 357 651 563 651 q 132 617 248 651 l 132 678 q 357 712 248 712 q 634 491 634 712 l 634 0 l 591 0 l 574 71 q 315 0 441 0 q 68 201 68 0 m 350 353 q 139 203 139 353 q 315 61 139 61 q 563 130 446 61 l 563 339 q 350 353 450 353 m 341 970 l 416 970 l 548 793 l 480 793 l 377 925 l 277 793 l 209 793 l 341 970 z "},"ä":{"ha":743,"x_min":68,"x_max":634,"o":"m 68 201 q 350 414 68 414 q 563 400 450 414 l 563 488 q 357 651 563 651 q 132 617 248 651 l 132 678 q 357 712 248 712 q 634 491 634 712 l 634 0 l 591 0 l 574 71 q 315 0 441 0 q 68 201 68 0 m 350 353 q 139 203 139 353 q 315 61 139 61 q 563 130 446 61 l 563 339 q 350 353 450 353 m 539 956 l 539 868 l 448 868 l 448 956 l 539 956 m 322 956 l 322 868 l 231 868 l 231 956 l 322 956 z "},"ã":{"ha":743,"x_min":68,"x_max":634,"o":"m 68 201 q 350 414 68 414 q 563 400 450 414 l 563 488 q 357 651 563 651 q 132 617 248 651 l 132 678 q 357 712 248 712 q 634 491 634 712 l 634 0 l 591 0 l 574 71 q 315 0 441 0 q 68 201 68 0 m 350 353 q 139 203 139 353 q 315 61 139 61 q 563 130 446 61 l 563 339 q 350 353 450 353 m 209 939 q 297 970 250 970 q 372 952 332 970 q 449 935 411 935 q 548 966 500 935 l 548 905 q 460 873 507 873 q 385 891 425 873 q 308 909 346 909 q 209 878 257 909 l 209 939 z "},"å":{"ha":743,"x_min":68,"x_max":634,"o":"m 68 201 q 350 414 68 414 q 563 400 450 414 l 563 488 q 357 651 563 651 q 132 617 248 651 l 132 678 q 357 712 248 712 q 634 491 634 712 l 634 0 l 591 0 l 574 71 q 315 0 441 0 q 68 201 68 0 m 350 353 q 139 203 139 353 q 315 61 139 61 q 563 130 446 61 l 563 339 q 350 353 450 353 m 286 924 q 380 831 286 831 q 471 924 471 831 q 380 1015 471 1015 q 286 924 286 1015 m 232 923 q 380 1059 232 1059 q 525 923 525 1059 q 380 788 525 788 q 232 923 232 788 z "},"ç":{"ha":682,"x_min":75,"x_max":624,"o":"m 386 2 q 75 370 75 26 q 434 712 75 712 q 624 692 536 712 l 624 631 q 441 651 529 651 q 153 370 153 651 q 441 61 153 61 q 624 81 529 61 l 624 20 q 451 0 543 2 l 423 -52 q 575 -169 575 -52 q 412 -286 575 -286 q 265 -252 338 -286 l 265 -193 q 412 -233 338 -233 q 512 -169 512 -233 q 429 -105 512 -105 l 325 -105 l 386 2 z "},"é":{"ha":777,"x_min":75,"x_max":688,"o":"m 395 712 q 688 389 688 712 q 686 340 688 366 l 146 340 q 441 61 146 61 q 657 95 563 61 l 657 34 q 441 0 563 0 q 75 364 75 0 q 395 712 75 712 m 146 404 l 619 404 q 395 652 615 652 q 146 404 158 652 m 419 970 l 527 970 l 365 808 l 308 808 l 419 970 z "},"è":{"ha":777,"x_min":75,"x_max":688,"o":"m 395 712 q 688 389 688 712 q 686 340 688 366 l 146 340 q 441 61 146 61 q 657 95 563 61 l 657 34 q 441 0 563 0 q 75 364 75 0 q 395 712 75 712 m 146 404 l 619 404 q 395 652 615 652 q 146 404 158 652 m 468 808 l 411 808 l 249 970 l 357 970 l 468 808 z "},"ê":{"ha":777,"x_min":75,"x_max":688,"o":"m 395 712 q 688 389 688 712 q 686 340 688 366 l 146 340 q 441 61 146 61 q 657 95 563 61 l 657 34 q 441 0 563 0 q 75 364 75 0 q 395 712 75 712 m 146 404 l 619 404 q 395 652 615 652 q 146 404 158 652 m 357 970 l 432 970 l 564 793 l 496 793 l 393 925 l 293 793 l 225 793 l 357 970 z "},"ë":{"ha":777,"x_min":75,"x_max":688,"o":"m 395 712 q 688 389 688 712 q 686 340 688 366 l 146 340 q 441 61 146 61 q 657 95 563 61 l 657 34 q 441 0 563 0 q 75 364 75 0 q 395 712 75 712 m 146 404 l 619 404 q 395 652 615 652 q 146 404 158 652 m 549 956 l 549 868 l 458 868 l 458 956 l 549 956 m 332 956 l 332 868 l 241 868 l 241 956 l 332 956 z "},"í":{"ha":302,"x_min":78,"x_max":297,"o":"m 186 712 l 186 0 l 115 0 l 115 712 l 186 712 m 189 970 l 297 970 l 135 808 l 78 808 l 189 970 z "},"ì":{"ha":302,"x_min":5,"x_max":224,"o":"m 186 712 l 186 0 l 115 0 l 115 712 l 186 712 m 224 808 l 167 808 l 5 970 l 113 970 l 224 808 z "},"î":{"ha":302,"x_min":-18,"x_max":321,"o":"m 187 712 l 187 0 l 116 0 l 116 712 l 187 712 m 114 970 l 189 970 l 321 793 l 253 793 l 150 925 l 50 793 l -18 793 l 114 970 z "},"ï":{"ha":302,"x_min":3,"x_max":312,"o":"m 193 712 l 193 0 l 122 0 l 122 712 l 193 712 m 312 956 l 312 868 l 220 868 l 220 956 l 312 956 m 95 956 l 95 868 l 3 868 l 3 956 l 95 956 z "},"ñ":{"ha":804,"x_min":109,"x_max":695,"o":"m 109 0 l 109 712 l 159 712 l 168 621 q 435 712 304 712 q 695 488 695 712 l 695 0 l 624 0 l 624 490 q 432 648 624 648 q 180 558 304 648 l 180 0 l 109 0 m 233 939 q 321 970 273 970 q 395 952 356 970 q 473 935 435 935 q 572 966 524 935 l 572 905 q 484 873 531 873 q 409 891 448 873 q 332 909 370 909 q 233 878 281 909 l 233 939 z "},"ó":{"ha":814,"x_min":75,"x_max":739,"o":"m 146 359 q 407 54 146 54 q 668 359 668 54 q 407 658 668 658 q 146 359 146 658 m 75 356 q 407 719 75 719 q 739 356 739 719 q 407 -6 739 -6 q 75 356 76 -6 m 445 970 l 553 970 l 391 808 l 334 808 l 445 970 z "},"ò":{"ha":814,"x_min":75,"x_max":739,"o":"m 146 359 q 407 54 146 54 q 668 359 668 54 q 407 658 668 658 q 146 359 146 658 m 75 356 q 407 719 75 719 q 739 356 739 719 q 407 -6 739 -6 q 75 356 76 -6 m 480 808 l 423 808 l 261 970 l 369 970 l 480 808 z "},"ô":{"ha":814,"x_min":75,"x_max":739,"o":"m 146 359 q 407 54 146 54 q 668 359 668 54 q 407 658 668 658 q 146 359 146 658 m 75 356 q 407 719 75 719 q 739 356 739 719 q 407 -6 739 -6 q 75 356 76 -6 m 370 970 l 444 970 l 576 793 l 509 793 l 406 925 l 305 793 l 237 793 l 370 970 z "},"ö":{"ha":814,"x_min":75,"x_max":739,"o":"m 146 359 q 407 54 146 54 q 668 359 668 54 q 407 658 668 658 q 146 359 146 658 m 75 356 q 407 719 75 719 q 739 356 739 719 q 407 -6 739 -6 q 75 356 76 -6 m 562 956 l 562 868 l 470 868 l 470 956 l 562 956 m 345 956 l 345 868 l 253 868 l 253 956 l 345 956 z "},"õ":{"ha":814,"x_min":75,"x_max":739,"o":"m 146 359 q 407 54 146 54 q 668 359 668 54 q 407 658 668 658 q 146 359 146 658 m 75 356 q 407 719 75 719 q 739 356 739 719 q 407 -6 739 -6 q 75 356 76 -6 m 237 939 q 326 970 278 970 q 400 952 361 970 q 477 935 439 935 q 576 966 528 935 l 576 905 q 488 873 536 873 q 414 891 453 873 q 336 909 374 909 q 237 878 286 909 l 237 939 z "},"ú":{"ha":804,"x_min":109,"x_max":695,"o":"m 695 712 l 695 0 l 643 0 l 635 91 q 361 0 512 0 q 109 265 109 0 l 109 712 l 180 712 l 180 263 q 364 64 180 64 q 624 154 499 64 l 624 712 l 695 712 m 427 970 l 534 970 l 372 808 l 315 808 l 427 970 z "},"ù":{"ha":804,"x_min":109,"x_max":695,"o":"m 695 712 l 695 0 l 643 0 l 635 91 q 361 0 512 0 q 109 265 109 0 l 109 712 l 180 712 l 180 263 q 364 64 180 64 q 624 154 499 64 l 624 712 l 695 712 m 461 808 l 404 808 l 242 970 l 350 970 l 461 808 z "},"û":{"ha":804,"x_min":109,"x_max":695,"o":"m 695 712 l 695 0 l 643 0 l 635 91 q 361 0 512 0 q 109 265 109 0 l 109 712 l 180 712 l 180 263 q 364 64 180 64 q 624 154 499 64 l 624 712 l 695 712 m 351 970 l 426 970 l 558 793 l 490 793 l 387 925 l 287 793 l 219 793 l 351 970 z "},"ü":{"ha":804,"x_min":109,"x_max":695,"o":"m 695 712 l 695 0 l 643 0 l 635 91 q 361 0 512 0 q 109 265 109 0 l 109 712 l 180 712 l 180 263 q 364 64 180 64 q 624 154 499 64 l 624 712 l 695 712 m 543 956 l 543 868 l 451 868 l 451 956 l 543 956 m 326 956 l 326 868 l 234 868 l 234 956 l 326 956 z "},"†":{"ha":722,"x_min":41,"x_max":682,"o":"m 397 970 l 397 712 l 682 712 l 682 651 l 397 651 l 397 -258 l 326 -258 l 326 651 l 41 651 l 41 712 l 326 712 l 326 970 l 397 970 z "},"°":{"ha":524,"x_min":75,"x_max":449,"o":"m 136 795 q 263 668 136 668 q 388 795 388 668 q 263 920 388 920 q 136 795 136 920 m 75 793 q 263 970 75 970 q 449 793 449 970 q 263 618 449 618 q 75 793 75 618 z "},"¢":{"ha":682,"x_min":75,"x_max":624,"o":"m 380 839 l 380 970 l 458 970 l 458 841 q 624 821 546 838 l 624 760 q 441 780 529 780 q 153 498 153 780 q 441 190 153 190 q 624 210 529 190 l 624 149 q 458 129 546 132 l 458 0 l 380 0 l 380 131 q 75 498 75 158 q 380 839 75 814 z "},"£":{"ha":839,"x_min":75,"x_max":764,"o":"m 75 42 q 201 280 201 93 q 149 477 201 359 q 96 696 96 595 q 461 977 96 977 q 764 909 658 977 l 764 827 q 463 916 657 916 q 176 698 176 916 q 213 522 176 600 l 515 522 l 515 461 l 235 461 q 275 282 275 350 q 231 80 275 189 q 289 83 259 83 q 490 54 382 83 q 572 42 532 42 q 764 109 671 42 l 764 34 q 572 -23 683 -23 q 435 -4 508 -23 q 269 18 348 18 q 75 -20 165 18 l 75 42 z "},"§":{"ha":726,"x_min":75,"x_max":651,"o":"m 109 27 l 109 95 q 355 54 227 54 q 580 190 580 54 q 393 305 580 305 l 319 305 q 75 488 75 305 q 184 628 75 589 q 75 780 75 662 q 385 977 75 977 q 617 943 498 977 l 617 875 q 385 916 498 916 q 146 780 146 916 q 319 665 146 665 l 393 665 q 651 484 651 665 q 539 338 651 375 q 651 190 651 296 q 355 -7 651 -7 q 109 27 227 -7 m 146 486 q 326 365 146 365 l 400 365 q 580 477 580 365 q 400 604 580 604 l 326 604 q 146 486 146 604 z "},"•":{"ha":414,"x_min":75,"x_max":339,"o":"m 75 492 q 207 624 75 624 q 339 492 339 624 q 207 359 339 359 q 75 492 75 359 z "},"¶":{"ha":660,"x_min":7,"x_max":653,"o":"m 307 -294 l 307 365 q 7 669 7 365 q 307 970 7 970 l 653 970 l 653 909 l 551 909 l 551 -294 l 484 -294 l 484 909 l 375 909 l 375 -294 l 307 -294 z "},"ß":{"ha":791,"x_min":109,"x_max":733,"o":"m 109 0 l 109 650 q 416 968 109 968 q 688 712 688 968 l 688 675 q 468 500 468 605 q 601 369 468 418 q 733 191 733 321 q 479 0 733 0 l 342 0 l 342 61 l 481 61 q 655 191 655 61 q 526 332 655 287 q 397 498 397 377 q 612 712 397 639 q 412 907 612 907 q 180 648 180 907 l 180 0 l 109 0 z "},"®":{"ha":802,"x_min":109,"x_max":694,"o":"m 281 513 l 281 876 l 436 876 q 540 789 540 876 q 438 684 540 718 l 563 513 l 501 513 l 385 676 l 385 707 q 490 787 490 724 q 431 838 490 838 l 328 838 l 328 513 l 281 513 m 158 695 q 400 450 158 450 q 644 695 644 450 q 400 945 644 945 q 158 695 158 945 m 109 694 q 400 983 109 983 q 694 694 694 983 q 400 412 694 412 q 109 694 117 412 z "},"©":{"ha":1211,"x_min":102,"x_max":1109,"o":"m 173 488 q 595 54 173 54 q 1038 488 1038 54 q 609 916 1038 916 q 173 488 173 916 m 102 490 q 609 977 102 977 q 1109 490 1109 977 q 609 -7 1109 -7 q 102 490 102 -7 m 802 228 q 606 193 718 193 q 323 494 323 193 q 606 776 323 776 q 802 741 718 776 l 802 675 q 615 714 718 714 q 395 494 395 714 q 615 255 395 255 q 802 294 718 255 l 802 228 z "},"™":{"ha":1103,"x_min":109,"x_max":994,"o":"m 455 970 l 455 922 l 311 922 l 311 513 l 252 513 l 252 922 l 109 922 l 109 970 l 455 970 m 515 513 l 515 970 l 590 970 l 758 589 l 922 970 l 994 970 l 994 513 l 941 513 l 941 882 l 779 513 l 732 513 l 568 882 l 568 513 l 515 513 z "},"´":{"ha":355,"x_min":68,"x_max":287,"o":"m 179 970 l 287 970 l 125 808 l 68 808 l 179 970 z "},"¨":{"ha":431,"x_min":61,"x_max":370,"o":"m 370 956 l 370 868 l 278 868 l 278 956 l 370 956 m 153 956 l 153 868 l 61 868 l 61 956 l 153 956 z "},"Æ":{"ha":1285,"x_min":24,"x_max":1194,"o":"m 24 0 l 435 970 l 1180 970 l 1180 909 l 557 909 l 720 522 l 1156 522 l 1156 461 l 747 461 l 920 61 l 1194 61 l 1194 0 l 856 0 l 478 918 l 273 387 l 612 387 l 631 326 l 238 326 l 106 0 l 24 0 z "},"Ø":{"ha":1116,"x_min":75,"x_max":1041,"o":"m 319 111 q 562 54 413 54 q 963 488 963 54 q 854 818 963 711 l 319 111 m 260 157 l 794 863 q 562 916 703 916 q 153 488 153 916 q 260 157 153 265 m 276 56 l 234 0 l 141 0 l 215 98 q 75 484 75 220 q 562 977 75 977 q 836 918 728 977 l 876 970 l 969 970 l 897 876 q 1041 484 1041 753 q 562 -7 1041 -7 q 276 56 388 -7 z "},"±":{"ha":658,"x_min":75,"x_max":583,"o":"m 292 488 l 292 712 l 366 712 l 366 488 l 583 488 l 583 427 l 366 427 l 366 203 l 292 203 l 292 427 l 75 427 l 75 488 l 292 488 m 583 61 l 583 0 l 75 0 l 75 61 l 583 61 z "},"¥":{"ha":861,"x_min":41,"x_max":821,"o":"m 41 970 l 125 970 l 425 522 l 729 970 l 821 970 l 486 495 l 739 495 l 739 434 l 457 434 l 457 318 l 739 318 l 739 257 l 457 257 l 457 0 l 386 0 l 386 257 l 122 257 l 122 318 l 386 318 l 386 434 l 122 434 l 122 495 l 357 495 l 41 970 z "},"µ":{"ha":817,"x_min":109,"x_max":709,"o":"m 709 712 l 709 0 l 656 0 l 648 91 q 368 0 485 0 q 173 81 243 0 l 173 -258 l 109 -258 l 109 712 l 173 712 l 173 256 q 391 64 173 64 q 637 154 499 64 l 637 712 l 709 712 z "},"ª":{"ha":429,"x_min":68,"x_max":361,"o":"m 68 725 q 212 834 68 834 q 305 827 266 834 l 305 861 q 209 920 305 920 q 96 902 155 920 l 96 954 q 209 970 155 970 q 361 856 361 970 l 361 614 l 330 614 l 311 639 q 202 614 264 614 q 68 725 68 614 m 305 777 q 212 784 268 784 q 123 726 123 784 q 202 665 123 665 q 305 693 267 665 l 305 777 z "},"º":{"ha":475,"x_min":68,"x_max":407,"o":"m 124 793 q 237 665 124 665 q 351 793 351 665 q 237 920 351 920 q 124 793 124 920 m 68 792 q 237 970 68 970 q 407 792 407 970 q 237 614 407 614 q 68 792 69 614 z "},"æ":{"ha":1246,"x_min":68,"x_max":1171,"o":"m 350 359 q 139 203 139 359 q 315 61 139 61 q 576 130 446 61 l 576 346 q 350 359 450 359 m 643 404 l 1103 404 q 879 652 1099 652 q 643 404 655 652 m 641 105 q 315 0 475 0 q 68 201 68 0 q 350 420 68 420 q 576 407 450 420 l 576 488 q 357 651 576 651 q 132 617 248 651 l 132 678 q 357 712 248 712 q 623 588 578 712 q 879 712 701 712 q 1171 389 1171 712 q 1170 340 1171 366 l 643 340 q 918 61 643 61 q 1134 95 1040 61 l 1134 34 q 918 0 1040 0 q 641 105 732 0 z "},"ø":{"ha":816,"x_min":75,"x_max":741,"o":"m 264 87 q 407 54 321 54 q 668 359 668 54 q 623 556 668 484 l 264 87 m 208 134 l 572 612 q 407 658 509 658 q 146 359 146 658 q 208 134 146 211 m 224 34 l 198 0 l 105 0 l 165 78 q 75 356 75 168 q 407 719 75 719 q 612 666 534 719 l 648 712 l 741 712 l 667 615 q 739 356 739 525 q 407 -6 739 -6 q 224 34 297 -6 z "},"¿":{"ha":770,"x_min":75,"x_max":695,"o":"m 495 641 l 495 712 l 566 712 l 566 641 l 495 641 m 695 -224 q 424 -258 553 -258 q 75 7 75 -258 q 412 271 75 271 l 495 271 l 495 461 l 566 461 l 566 210 l 414 210 q 146 7 146 210 q 424 -197 146 -197 q 695 -163 553 -197 l 695 -224 z "},"¡":{"ha":288,"x_min":109,"x_max":180,"o":"m 109 -258 l 109 461 l 180 461 l 180 -258 l 109 -258 m 109 641 l 109 712 l 180 712 l 180 641 l 109 641 z "},"¬":{"ha":749,"x_min":75,"x_max":675,"o":"m 75 712 l 675 712 l 675 481 l 614 481 l 614 651 l 75 651 l 75 712 z "},"ƒ":{"ha":669,"x_min":41,"x_max":629,"o":"m 629 909 q 597 912 612 912 q 444 726 480 912 l 421 624 l 564 624 l 550 563 l 408 563 l 296 -14 q 76 -260 247 -260 q 41 -258 59 -260 l 41 -197 q 72 -200 57 -200 q 225 -14 189 -200 l 336 563 l 214 563 l 228 624 l 350 624 l 373 726 q 593 972 422 972 q 629 970 610 972 l 629 909 z "},"«":{"ha":589,"x_min":75,"x_max":549,"o":"m 291 356 l 466 610 l 549 610 l 374 356 l 549 102 l 466 102 l 291 356 m 75 356 l 250 610 l 332 610 l 157 356 l 332 102 l 250 102 l 75 356 z "},"»":{"ha":589,"x_min":41,"x_max":515,"o":"m 123 102 l 41 102 l 216 356 l 41 610 l 123 610 l 298 356 l 123 102 m 340 102 l 257 102 l 432 356 l 257 610 l 340 610 l 515 356 l 340 102 z "},"…":{"ha":715,"x_min":75,"x_max":641,"o":"m 404 85 l 404 0 l 312 0 l 312 85 l 404 85 m 166 85 l 166 0 l 75 0 l 75 85 l 166 85 m 641 85 l 641 0 l 549 0 l 549 85 l 641 85 z "}," ":{"ha":351,"x_min":0,"x_max":0,"o":""},"À":{"ha":1012,"x_min":24,"x_max":988,"o":"m 100 0 l 24 0 l 463 970 l 547 970 l 988 0 l 903 0 l 760 326 l 325 326 l 346 387 l 733 387 l 500 914 l 100 0 m 579 1065 l 522 1065 l 360 1227 l 468 1227 l 579 1065 z "},"Ã":{"ha":1012,"x_min":24,"x_max":988,"o":"m 100 0 l 24 0 l 463 970 l 547 970 l 988 0 l 903 0 l 760 326 l 325 326 l 346 387 l 733 387 l 500 914 l 100 0 m 336 1196 q 425 1227 377 1227 q 499 1210 460 1227 q 576 1192 538 1192 q 675 1223 627 1192 l 675 1162 q 587 1131 635 1131 q 513 1149 552 1131 q 435 1166 473 1166 q 336 1135 385 1166 l 336 1196 z "},"Õ":{"ha":1116,"x_min":75,"x_max":1041,"o":"m 153 488 q 562 54 153 54 q 963 488 963 54 q 562 916 963 916 q 153 488 153 916 m 75 484 q 562 977 75 977 q 1041 484 1041 977 q 562 -7 1041 -7 q 75 484 75 -7 m 389 1196 q 477 1227 429 1227 q 551 1210 512 1227 q 629 1192 591 1192 q 728 1223 680 1192 l 728 1162 q 640 1131 687 1131 q 565 1149 604 1131 q 488 1166 526 1166 q 389 1135 437 1166 l 389 1196 z "},"Œ":{"ha":1516,"x_min":75,"x_max":1424,"o":"m 153 488 q 562 61 153 61 q 963 488 963 61 q 562 909 963 909 q 153 488 153 909 m 75 484 q 562 970 75 970 l 1414 970 l 1414 909 l 834 909 q 1041 522 1021 816 l 1390 522 l 1390 461 l 1041 461 q 826 61 1021 158 l 1424 61 l 1424 0 l 562 0 q 75 484 75 0 z "},"œ":{"ha":1373,"x_min":75,"x_max":1284,"o":"m 407 61 q 668 359 668 61 q 407 651 668 651 q 146 359 146 651 q 407 61 146 61 m 743 404 l 1216 404 q 992 652 1212 652 q 743 404 755 652 m 708 172 q 407 1 637 1 q 75 356 76 1 q 407 712 75 712 q 704 551 631 712 q 992 712 774 712 q 1284 389 1284 712 q 1283 340 1284 366 l 743 340 q 1045 61 743 61 q 1261 81 1166 61 l 1261 20 q 1045 0 1166 0 q 708 172 789 0 z "},"–":{"ha":827,"x_min":75,"x_max":753,"o":"m 753 387 l 753 326 l 75 326 l 75 387 l 753 387 z "},"—":{"ha":1166,"x_min":75,"x_max":1092,"o":"m 1092 387 l 1092 326 l 75 326 l 75 387 l 1092 387 z "},"“":{"ha":441,"x_min":41,"x_max":424,"o":"m 424 970 l 322 675 l 244 675 l 346 970 l 424 970 m 220 970 l 119 675 l 41 675 l 142 970 l 220 970 z "},"”":{"ha":441,"x_min":41,"x_max":424,"o":"m 424 970 l 322 675 l 244 675 l 346 970 l 424 970 m 220 970 l 119 675 l 41 675 l 142 970 l 220 970 z "},"‘":{"ha":237,"x_min":41,"x_max":220,"o":"m 220 970 l 119 675 l 41 675 l 142 970 l 220 970 z "},"’":{"ha":254,"x_min":41,"x_max":220,"o":"m 220 970 l 119 675 l 41 675 l 142 970 l 220 970 z "},"÷":{"ha":682,"x_min":75,"x_max":607,"o":"m 607 387 l 607 326 l 75 326 l 75 387 l 607 387 m 390 190 l 390 102 l 292 102 l 292 190 l 390 190 m 390 610 l 390 522 l 292 522 l 292 610 l 390 610 z "},"ÿ":{"ha":733,"x_min":24,"x_max":709,"o":"m 24 712 l 106 712 l 370 69 l 631 712 l 709 712 l 400 -21 q 164 -263 321 -215 l 143 -206 q 332 -11 267 -161 l 24 712 m 521 956 l 521 868 l 429 868 l 429 956 l 521 956 m 304 956 l 304 868 l 212 868 l 212 956 l 304 956 z "},"Ÿ":{"ha":848,"x_min":24,"x_max":824,"o":"m 24 970 l 109 970 l 422 407 l 746 970 l 824 970 l 460 339 l 460 0 l 389 0 l 389 339 l 24 970 m 578 1214 l 578 1126 l 487 1126 l 487 1214 l 578 1214 m 361 1214 l 361 1126 l 270 1126 l 270 1214 l 361 1214 z "},"¤":{"ha":759,"x_min":75,"x_max":684,"o":"m 167 533 l 75 614 l 121 663 l 206 568 q 384 618 279 618 q 553 566 488 618 l 637 659 l 684 614 l 588 529 q 644 363 644 456 q 591 185 644 248 l 684 111 l 637 62 l 557 152 q 378 98 477 98 q 200 152 281 98 l 121 62 l 75 104 l 167 185 q 115 356 115 255 q 167 533 115 463 m 171 359 q 378 151 171 151 q 585 359 585 151 q 378 565 585 565 q 171 359 171 565 z "},"‹":{"ha":373,"x_min":75,"x_max":332,"o":"m 75 356 l 250 610 l 332 610 l 157 356 l 332 102 l 250 102 l 75 356 z "},"›":{"ha":373,"x_min":41,"x_max":298,"o":"m 123 102 l 41 102 l 216 356 l 41 610 l 123 610 l 298 356 l 123 102 z "},"‡":{"ha":722,"x_min":41,"x_max":682,"o":"m 397 970 l 397 712 l 682 712 l 682 651 l 397 651 l 397 61 l 682 61 l 682 0 l 397 0 l 397 -258 l 326 -258 l 326 0 l 41 0 l 41 61 l 326 61 l 326 651 l 41 651 l 41 712 l 326 712 l 326 970 l 397 970 z "},"·":{"ha":292,"x_min":81,"x_max":210,"o":"m 81 356 q 146 420 81 420 q 210 356 210 420 q 146 292 210 292 q 81 356 81 292 z "},"‚":{"ha":237,"x_min":17,"x_max":197,"o":"m 197 125 l 95 -170 l 17 -170 l 119 125 l 197 125 z "},"„":{"ha":441,"x_min":17,"x_max":400,"o":"m 400 125 l 298 -170 l 220 -170 l 322 125 l 400 125 m 197 125 l 95 -170 l 17 -170 l 119 125 l 197 125 z "},"‰":{"ha":1388,"x_min":75,"x_max":1314,"o":"m 1007 170 q 1128 50 1007 50 q 1246 170 1246 50 q 1128 288 1246 288 q 1007 170 1007 288 m 939 169 q 1128 345 939 345 q 1314 169 1314 345 q 1128 -7 1314 -7 q 939 169 939 -7 m 159 0 l 75 0 l 764 970 l 849 970 l 159 0 m 142 802 q 263 682 142 682 q 381 802 381 682 q 263 920 381 920 q 142 802 142 920 m 75 800 q 263 977 75 977 q 449 800 449 977 q 263 625 449 625 q 75 800 75 625 m 543 170 q 663 50 543 50 q 781 170 781 50 q 663 288 781 288 q 543 170 543 288 m 475 169 q 663 345 475 345 q 849 169 849 345 q 663 -7 849 -7 q 475 169 475 -7 z "},"Â":{"ha":1012,"x_min":24,"x_max":988,"o":"m 100 0 l 24 0 l 463 970 l 547 970 l 988 0 l 903 0 l 760 326 l 325 326 l 346 387 l 733 387 l 500 914 l 100 0 m 469 1227 l 543 1227 l 675 1051 l 608 1051 l 505 1183 l 404 1051 l 336 1051 l 469 1227 z "},"Ê":{"ha":846,"x_min":109,"x_max":755,"o":"m 745 970 l 745 909 l 180 909 l 180 522 l 722 522 l 722 461 l 180 461 l 180 61 l 755 61 l 755 0 l 109 0 l 109 970 l 745 970 m 395 1227 l 469 1227 l 602 1051 l 534 1051 l 431 1183 l 330 1051 l 262 1051 l 395 1227 z "},"Á":{"ha":1012,"x_min":24,"x_max":988,"o":"m 100 0 l 24 0 l 463 970 l 547 970 l 988 0 l 903 0 l 760 326 l 325 326 l 346 387 l 733 387 l 500 914 l 100 0 m 544 1227 l 652 1227 l 490 1065 l 433 1065 l 544 1227 z "},"Ë":{"ha":846,"x_min":109,"x_max":755,"o":"m 745 970 l 745 909 l 180 909 l 180 522 l 722 522 l 722 461 l 180 461 l 180 61 l 755 61 l 755 0 l 109 0 l 109 970 l 745 970 m 586 1214 l 586 1126 l 494 1126 l 494 1214 l 586 1214 m 369 1214 l 369 1126 l 277 1126 l 277 1214 l 369 1214 z "},"È":{"ha":846,"x_min":109,"x_max":755,"o":"m 745 970 l 745 909 l 180 909 l 180 522 l 722 522 l 722 461 l 180 461 l 180 61 l 755 61 l 755 0 l 109 0 l 109 970 l 745 970 m 505 1065 l 448 1065 l 286 1227 l 393 1227 l 505 1065 z "},"Í":{"ha":356,"x_min":105,"x_max":324,"o":"m 214 970 l 214 0 l 142 0 l 142 970 l 214 970 m 216 1227 l 324 1227 l 162 1065 l 105 1065 l 216 1227 z "},"Î":{"ha":356,"x_min":9,"x_max":348,"o":"m 214 970 l 214 0 l 143 0 l 143 970 l 214 970 m 141 1227 l 216 1227 l 348 1051 l 280 1051 l 177 1183 l 77 1051 l 9 1051 l 141 1227 z "},"Ï":{"ha":356,"x_min":31,"x_max":339,"o":"m 220 970 l 220 0 l 149 0 l 149 970 l 220 970 m 339 1214 l 339 1126 l 248 1126 l 248 1214 l 339 1214 m 122 1214 l 122 1126 l 31 1126 l 31 1214 l 122 1214 z "},"Ì":{"ha":356,"x_min":32,"x_max":251,"o":"m 214 970 l 214 0 l 142 0 l 142 970 l 214 970 m 251 1065 l 194 1065 l 32 1227 l 140 1227 l 251 1065 z "},"Ó":{"ha":1116,"x_min":75,"x_max":1041,"o":"m 153 488 q 562 54 153 54 q 963 488 963 54 q 562 916 963 916 q 153 488 153 916 m 75 484 q 562 977 75 977 q 1041 484 1041 977 q 562 -7 1041 -7 q 75 484 75 -7 m 596 1227 l 704 1227 l 542 1065 l 485 1065 l 596 1227 z "},"Ô":{"ha":1116,"x_min":75,"x_max":1041,"o":"m 153 488 q 562 54 153 54 q 963 488 963 54 q 562 916 963 916 q 153 488 153 916 m 75 484 q 562 977 75 977 q 1041 484 1041 977 q 562 -7 1041 -7 q 75 484 75 -7 m 521 1227 l 595 1227 l 728 1051 l 660 1051 l 557 1183 l 456 1051 l 389 1051 l 521 1227 z "},"Ò":{"ha":1116,"x_min":75,"x_max":1041,"o":"m 153 488 q 562 54 153 54 q 963 488 963 54 q 562 916 963 916 q 153 488 153 916 m 75 484 q 562 977 75 977 q 1041 484 1041 977 q 562 -7 1041 -7 q 75 484 75 -7 m 631 1065 l 574 1065 l 412 1227 l 519 1227 l 631 1065 z "},"Ú":{"ha":997,"x_min":109,"x_max":888,"o":"m 109 374 l 109 970 l 180 970 l 180 374 q 498 54 180 54 q 817 374 817 54 l 817 970 l 888 970 l 888 374 q 498 -7 888 -7 q 109 374 109 -7 m 536 1227 l 644 1227 l 482 1065 l 425 1065 l 536 1227 z "},"Û":{"ha":997,"x_min":109,"x_max":888,"o":"m 109 374 l 109 970 l 180 970 l 180 374 q 498 54 180 54 q 817 374 817 54 l 817 970 l 888 970 l 888 374 q 498 -7 888 -7 q 109 374 109 -7 m 461 1227 l 536 1227 l 668 1051 l 600 1051 l 497 1183 l 397 1051 l 329 1051 l 461 1227 z "},"Ù":{"ha":997,"x_min":109,"x_max":888,"o":"m 109 374 l 109 970 l 180 970 l 180 374 q 498 54 180 54 q 817 374 817 54 l 817 970 l 888 970 l 888 374 q 498 -7 888 -7 q 109 374 109 -7 m 572 1065 l 515 1065 l 353 1227 l 460 1227 l 572 1065 z "},"ˆ":{"ha":475,"x_min":68,"x_max":407,"o":"m 200 970 l 275 970 l 407 793 l 339 793 l 236 925 l 136 793 l 68 793 l 200 970 z "},"˜":{"ha":475,"x_min":68,"x_max":407,"o":"m 68 939 q 156 970 109 970 q 231 952 191 970 q 308 935 270 935 q 407 966 359 935 l 407 905 q 319 873 366 873 q 244 891 283 873 q 167 909 205 909 q 68 878 116 909 l 68 939 z "},"¯":{"ha":475,"x_min":68,"x_max":407,"o":"m 407 970 l 407 909 l 68 909 l 68 970 l 407 970 z "},"¸":{"ha":446,"x_min":68,"x_max":378,"o":"m 68 -193 q 214 -233 141 -233 q 315 -169 315 -233 q 231 -105 315 -105 l 127 -105 l 216 51 l 281 51 l 226 -52 q 378 -169 378 -52 q 214 -286 378 -286 q 68 -252 141 -286 l 68 -193 z "},"̦":{"ha":207,"x_min":17,"x_max":190,"o":"m 190 -68 l 88 -258 l 17 -258 l 119 -68 l 190 -68 z "},"Š":{"ha":888,"x_min":75,"x_max":814,"o":"m 102 34 l 102 109 q 438 54 254 54 q 743 285 743 54 q 545 454 743 454 l 345 454 q 75 699 75 454 q 471 977 75 977 q 787 936 634 977 l 787 868 q 471 916 634 916 q 146 699 146 916 q 345 522 146 522 l 545 522 q 814 285 814 522 q 438 -7 814 -7 q 102 34 254 -7 m 275 1227 l 342 1227 l 443 1096 l 546 1227 l 614 1227 l 481 1051 l 407 1051 l 275 1227 z "},"š":{"ha":699,"x_min":75,"x_max":627,"o":"m 98 34 l 98 102 q 331 61 216 61 q 555 203 555 61 q 389 319 555 319 l 298 319 q 75 509 75 319 q 371 712 75 712 q 604 678 485 712 l 604 610 q 371 651 485 651 q 146 509 146 651 q 298 387 146 387 l 389 387 q 627 203 627 387 q 331 0 627 0 q 98 34 216 0 m 182 970 l 250 970 l 351 838 l 454 970 l 522 970 l 389 793 l 315 793 l 182 970 z "},"¦":{"ha":288,"x_min":109,"x_max":180,"o":"m 180 237 l 180 -258 l 109 -258 l 109 237 l 180 237 m 179 970 l 179 475 l 109 475 l 109 970 l 179 970 z "},"Ð":{"ha":997,"x_min":-27,"x_max":929,"o":"m 180 522 l 481 522 l 481 461 l 180 461 l 180 61 l 448 61 q 851 511 851 61 q 448 909 851 909 l 180 909 l 180 522 m 109 461 l -27 461 l -27 522 l 109 522 l 109 970 l 454 970 q 929 511 929 970 q 448 0 929 0 l 109 0 l 109 461 z "},"ð":{"ha":793,"x_min":68,"x_max":726,"o":"m 654 397 q 642 570 654 476 q 395 658 561 658 q 136 366 136 658 q 396 54 136 54 q 654 397 654 54 m 575 867 q 726 400 726 727 q 395 -7 726 -7 q 68 366 68 -7 q 389 712 68 712 q 631 644 543 712 q 510 834 592 768 l 346 753 l 346 814 l 457 869 q 269 909 378 909 l 122 909 l 122 970 l 270 970 q 528 903 425 970 l 663 970 l 663 909 l 575 867 z "},"Ý":{"ha":848,"x_min":24,"x_max":824,"o":"m 24 970 l 109 970 l 422 407 l 746 970 l 824 970 l 460 339 l 460 0 l 389 0 l 389 339 l 24 970 m 462 1227 l 570 1227 l 408 1065 l 351 1065 l 462 1227 z "},"ý":{"ha":733,"x_min":24,"x_max":709,"o":"m 24 712 l 106 712 l 370 69 l 631 712 l 709 712 l 400 -21 q 164 -263 321 -215 l 143 -206 q 332 -11 267 -161 l 24 712 m 405 970 l 513 970 l 351 808 l 294 808 l 405 970 z "},"Þ":{"ha":857,"x_min":109,"x_max":799,"o":"m 109 0 l 109 970 l 180 970 l 180 761 l 522 761 q 799 528 799 761 q 413 203 799 266 l 394 262 q 720 523 720 319 q 511 698 720 698 l 180 698 l 180 0 l 109 0 z "},"þ":{"ha":798,"x_min":109,"x_max":724,"o":"m 180 104 q 378 68 288 68 q 654 375 654 68 q 380 648 654 648 q 180 632 285 648 l 180 104 m 180 697 q 381 712 273 712 q 724 374 724 712 q 379 0 724 0 q 180 34 294 0 l 180 -258 l 109 -258 l 109 970 l 180 970 l 180 697 z "},"­":{"ha":658,"x_min":75,"x_max":583,"o":"m 583 387 l 583 326 l 75 326 l 75 387 l 583 387 z "},"×":{"ha":557,"x_min":75,"x_max":482,"o":"m 233 356 l 75 514 l 123 562 l 281 404 l 434 557 l 477 514 l 324 361 l 482 203 l 434 155 l 276 313 l 118 155 l 75 198 l 233 356 z "},"¹":{"ha":236,"x_min":41,"x_max":161,"o":"m 92 481 l 92 889 l 41 889 l 41 926 l 161 967 l 161 481 l 92 481 z "},"²":{"ha":414,"x_min":41,"x_max":373,"o":"m 41 481 l 41 546 q 303 821 303 718 q 195 905 303 905 q 54 868 120 905 l 54 936 q 195 970 120 970 q 373 821 373 970 q 144 546 373 702 l 373 546 l 373 481 l 41 481 z "},"³":{"ha":406,"x_min":41,"x_max":365,"o":"m 41 949 q 176 970 109 970 q 365 831 365 970 q 301 728 365 758 q 365 624 365 699 q 176 479 365 479 q 41 499 109 479 l 41 567 q 176 543 109 543 q 296 624 296 543 q 203 696 296 696 l 92 696 l 92 760 l 202 760 q 296 831 296 760 q 176 906 296 906 q 41 882 109 906 l 41 949 z "},"½":{"ha":991,"x_min":75,"x_max":917,"o":"m 159 0 l 75 0 l 715 970 l 800 970 l 159 0 m 585 0 l 585 64 q 848 339 848 236 q 739 424 848 424 q 598 387 665 424 l 598 454 q 739 488 665 488 q 917 339 917 488 q 688 64 917 220 l 917 64 l 917 0 l 585 0 m 162 481 l 162 889 l 111 889 l 111 926 l 231 967 l 231 481 l 162 481 z "},"¼":{"ha":996,"x_min":75,"x_max":922,"o":"m 159 0 l 75 0 l 715 970 l 800 970 l 159 0 m 598 468 q 734 488 666 488 q 922 350 922 488 q 858 246 922 277 q 922 142 922 217 q 734 -3 922 -3 q 598 18 666 -3 l 598 85 q 734 61 666 61 q 852 142 852 61 q 760 214 852 214 l 648 214 l 648 278 l 759 278 q 852 350 852 278 q 734 425 852 425 q 598 400 666 425 l 598 468 m 162 481 l 162 889 l 111 889 l 111 926 l 231 967 l 231 481 l 162 481 z "},"¾":{"ha":1024,"x_min":75,"x_max":916,"o":"m 221 0 l 136 0 l 777 970 l 862 970 l 221 0 m 865 0 l 796 0 l 796 102 l 551 102 l 551 165 l 712 484 l 781 484 l 623 165 l 796 165 l 796 372 l 865 372 l 865 165 l 916 140 l 916 102 l 865 102 l 865 0 m 75 949 q 210 970 142 970 q 398 831 398 970 q 334 728 398 758 q 398 624 398 699 q 210 479 398 479 q 75 499 142 479 l 75 567 q 210 543 142 543 q 328 624 328 543 q 236 696 328 696 l 125 696 l 125 760 l 235 760 q 328 831 328 760 q 210 906 328 906 q 75 882 142 906 l 75 949 z "},"Ł":{"ha":775,"x_min":7,"x_max":741,"o":"m 109 401 l 7 327 l 7 401 l 109 476 l 109 970 l 180 970 l 180 529 l 453 730 l 453 655 l 180 454 l 180 61 l 741 61 l 741 0 l 109 0 l 109 401 z "},"ł":{"ha":315,"x_min":20,"x_max":295,"o":"m 122 477 l 122 970 l 193 970 l 193 530 l 295 605 l 295 530 l 193 455 l 193 0 l 122 0 l 122 402 l 20 327 l 20 401 l 122 477 z "},"Ž":{"ha":861,"x_min":92,"x_max":770,"o":"m 770 970 l 770 909 l 182 61 l 756 61 l 756 0 l 92 0 l 92 54 l 698 909 l 105 909 l 105 970 l 770 970 m 271 1242 l 339 1242 l 439 1110 l 543 1242 l 610 1242 l 478 1065 l 404 1065 l 271 1242 z "},"ž":{"ha":685,"x_min":75,"x_max":610,"o":"m 88 712 l 610 712 l 610 651 l 165 61 l 597 61 l 597 0 l 75 0 l 75 61 l 526 651 l 88 651 l 88 712 m 176 1002 l 243 1002 l 344 871 l 447 1002 l 515 1002 l 382 826 l 308 826 l 176 1002 z "},"≠":{"ha":658,"x_min":75,"x_max":583,"o":"m 276 224 l 136 0 l 75 0 l 215 224 l 75 224 l 75 285 l 254 285 l 343 427 l 75 427 l 75 488 l 382 488 l 522 712 l 583 712 l 443 488 l 583 488 l 583 427 l 404 427 l 315 285 l 583 285 l 583 224 l 276 224 z "},"∞":{"ha":1044,"x_min":75,"x_max":970,"o":"m 75 356 q 271 556 75 556 q 522 407 414 556 q 773 556 631 556 q 970 356 970 556 q 773 156 970 156 q 522 305 631 156 q 271 156 414 156 q 75 356 75 156 m 905 356 q 773 502 905 502 q 556 356 671 502 q 773 210 671 210 q 905 356 905 210 m 139 356 q 271 210 139 210 q 488 356 373 210 q 271 502 373 502 q 139 356 139 502 z "},"≤":{"ha":658,"x_min":75,"x_max":583,"o":"m 583 61 l 583 0 l 75 0 l 75 61 l 583 61 m 75 427 l 75 488 l 583 726 l 583 658 l 140 460 l 583 258 l 583 190 l 75 427 z "},"≥":{"ha":658,"x_min":75,"x_max":583,"o":"m 583 61 l 583 0 l 75 0 l 75 61 l 583 61 m 75 190 l 75 258 l 517 460 l 75 658 l 75 726 l 583 488 l 583 427 l 75 190 z "},"∂":{"ha":839,"x_min":106,"x_max":786,"o":"m 518 916 q 256 825 378 916 l 256 895 q 526 977 394 977 q 786 687 786 977 q 768 513 786 610 q 319 -7 658 -7 q 106 191 106 -7 q 117 292 106 236 q 492 561 176 561 l 705 561 q 716 683 716 629 q 518 916 716 916 m 690 495 l 477 495 q 189 292 232 495 q 180 209 180 245 q 335 54 180 54 q 690 495 593 54 z "},"∑":{"ha":916,"x_min":68,"x_max":848,"o":"m 68 970 l 848 970 l 848 909 l 142 909 l 536 380 l 142 -197 l 848 -197 l 848 -258 l 68 -258 l 68 -197 l 458 380 l 68 909 l 68 970 z "},"∏":{"ha":1065,"x_min":102,"x_max":963,"o":"m 963 970 l 963 -258 l 899 -258 l 899 909 l 173 909 l 173 -258 l 102 -258 l 102 970 l 963 970 z "},"π":{"ha":939,"x_min":17,"x_max":871,"o":"m 17 671 q 214 712 112 712 l 871 712 l 871 651 l 705 651 l 705 217 q 829 60 705 60 q 844 61 836 60 l 844 0 q 802 -3 822 -3 q 634 217 634 -3 l 634 651 l 285 651 l 285 -1 l 214 -1 l 214 651 q 17 610 112 651 l 17 671 z "},"∫":{"ha":359,"x_min":7,"x_max":352,"o":"m 352 1065 q 201 808 201 1065 q 202 766 201 788 l 228 298 q 229 251 229 274 q 7 -61 229 -61 l 7 0 q 157 256 157 0 q 157 298 157 277 l 131 766 q 130 814 130 791 q 352 1126 130 1126 l 352 1065 z "},"Ω":{"ha":1092,"x_min":81,"x_max":1010,"o":"m 92 0 l 92 61 l 332 61 q 81 556 81 271 q 546 983 81 983 q 1010 556 1010 983 q 760 61 1010 271 l 1000 61 l 1000 0 l 661 0 l 661 61 q 939 556 939 285 q 546 922 939 922 q 153 556 153 922 q 431 61 153 285 l 431 0 l 92 0 z "},"√":{"ha":929,"x_min":58,"x_max":922,"o":"m 58 712 l 271 712 l 467 86 l 841 1257 l 922 1257 l 502 -5 l 417 -5 l 214 651 l 58 651 l 58 712 z "},"≈":{"ha":726,"x_min":75,"x_max":651,"o":"m 651 285 l 651 224 q 502 190 576 190 q 356 224 428 190 q 214 258 284 258 q 75 224 144 258 l 75 285 q 224 319 151 319 q 370 285 298 319 q 512 251 441 251 q 651 285 583 251 m 651 488 l 651 427 q 502 393 576 393 q 356 427 428 393 q 214 461 284 461 q 75 427 144 461 l 75 488 q 224 522 151 522 q 370 488 298 522 q 512 454 441 454 q 651 488 583 454 z "},"Δ":{"ha":1012,"x_min":24,"x_max":988,"o":"m 24 0 l 463 970 l 548 970 l 988 0 l 24 0 m 876 61 l 500 914 l 128 61 l 876 61 z "},"◊":{"ha":749,"x_min":41,"x_max":709,"o":"m 339 970 l 410 970 l 709 485 l 410 0 l 339 0 l 41 485 l 339 970 m 112 485 l 375 54 l 637 485 l 375 916 l 112 485 z "},"⁄":{"ha":875,"x_min":75,"x_max":800,"o":"m 159 0 l 75 0 l 715 970 l 800 970 l 159 0 z "},"ﬁ":{"ha":720,"x_min":109,"x_max":604,"o":"m 604 712 l 604 0 l 533 0 l 533 651 l 180 651 l 180 0 l 109 0 l 109 760 q 374 1019 109 1019 q 564 971 475 1019 l 564 910 q 374 958 479 958 q 180 766 180 958 l 180 712 l 604 712 z "},"ﬂ":{"ha":733,"x_min":109,"x_max":625,"o":"m 553 935 q 387 958 473 958 q 180 766 180 958 l 180 712 l 393 712 l 393 651 l 180 651 l 180 0 l 109 0 l 109 760 q 388 1019 109 1019 q 625 971 503 1019 l 625 0 l 553 0 l 553 935 z "},"":{"ha":1169,"x_min":68,"x_max":1101,"o":"m 801 225 l 801 294 l 628 303 l 628 669 l 714 669 l 749 398 l 827 398 l 801 745 l 639 745 l 585 719 l 531 745 l 368 745 l 342 398 l 420 398 l 454 669 l 541 669 l 541 303 l 368 294 l 368 225 l 801 225 m 362 902 l 387 962 l 448 937 l 484 991 l 538 956 l 585 1001 l 631 956 l 686 991 l 722 937 l 782 962 l 807 902 l 871 915 l 884 850 l 950 850 l 950 785 l 1014 772 l 1001 708 l 1061 683 l 1037 622 l 1092 587 l 1055 531 l 1101 486 l 1055 439 l 1092 383 l 1036 348 l 1061 287 l 1001 262 l 1014 198 l 950 185 l 950 120 l 884 120 l 871 55 l 807 68 l 782 7 l 722 33 l 686 -22 l 631 14 l 585 -31 l 538 14 l 484 -22 l 448 33 l 387 7 l 362 68 l 298 55 l 285 120 l 219 120 l 219 185 l 155 198 l 168 262 l 106 288 l 132 348 l 77 384 l 115 439 l 68 486 l 115 531 l 77 587 l 133 623 l 108 683 l 168 708 l 155 772 l 219 785 l 219 850 l 285 850 l 298 915 l 362 902 m 585 913 q 281 788 407 913 q 156 486 156 663 q 281 182 156 307 q 585 56 407 56 q 888 182 762 56 q 1013 486 1013 307 q 888 788 1013 663 q 585 913 762 913 m 585 877 q 861 762 747 877 q 976 486 976 647 q 861 208 976 323 q 585 93 747 93 q 308 208 422 93 q 193 486 193 323 q 308 762 193 647 q 585 877 422 877 z "},"ı":{"ha":302,"x_min":115,"x_max":186,"o":"m 186 712 l 186 0 l 115 0 l 115 712 l 186 712 z "},"˘":{"ha":481,"x_min":68,"x_max":414,"o":"m 68 970 l 125 970 q 241 848 125 848 q 356 970 356 848 l 414 970 q 241 793 414 793 q 68 970 68 793 z "},"˙":{"ha":248,"x_min":68,"x_max":180,"o":"m 180 970 l 180 868 l 68 868 l 68 970 l 180 970 z "},"˚":{"ha":429,"x_min":68,"x_max":361,"o":"m 122 924 q 216 831 122 831 q 307 924 307 831 q 216 1015 307 1015 q 122 924 122 1015 m 68 923 q 216 1059 68 1059 q 361 923 361 1059 q 216 788 361 788 q 68 923 68 788 z "},"˝":{"ha":545,"x_min":68,"x_max":477,"o":"m 179 970 l 287 970 l 125 808 l 68 808 l 179 970 m 370 970 l 477 970 l 315 808 l 258 808 l 370 970 z "},"˛":{"ha":380,"x_min":68,"x_max":312,"o":"m 298 0 q 134 -155 134 -85 q 219 -235 134 -235 q 312 -221 277 -235 l 312 -275 q 211 -289 271 -289 q 68 -172 68 -289 q 214 0 68 -69 l 298 0 z "},"ˇ":{"ha":475,"x_min":68,"x_max":407,"o":"m 68 970 l 136 970 l 236 838 l 339 970 l 407 970 l 275 793 l 200 793 l 68 970 z "},"€":{"ha":953,"x_min":75,"x_max":854,"o":"m 854 34 q 583 -7 729 -7 q 75 498 75 -7 q 583 977 75 977 q 854 936 729 977 l 854 868 q 597 916 729 916 q 159 618 212 916 l 724 618 l 724 557 l 153 557 l 153 442 l 724 442 l 724 381 l 159 381 q 597 54 212 54 q 854 102 729 54 l 854 34 z "},"Ż":{"ha":861,"x_min":92,"x_max":770,"o":"m 770 970 l 770 909 l 182 61 l 756 61 l 756 0 l 92 0 l 92 54 l 698 909 l 105 909 l 105 970 l 770 970 m 487 1227 l 487 1126 l 375 1126 l 375 1227 l 487 1227 z "},"ż":{"ha":692,"x_min":75,"x_max":617,"o":"m 88 712 l 617 712 l 617 651 l 165 61 l 604 61 l 604 0 l 75 0 l 75 61 l 532 651 l 88 651 l 88 712 m 402 970 l 402 868 l 290 868 l 290 970 l 402 970 z "},"Ź":{"ha":861,"x_min":92,"x_max":770,"o":"m 770 970 l 770 909 l 182 61 l 756 61 l 756 0 l 92 0 l 92 54 l 698 909 l 105 909 l 105 970 l 770 970 m 469 1227 l 576 1227 l 414 1065 l 357 1065 l 469 1227 z "},"ź":{"ha":692,"x_min":75,"x_max":617,"o":"m 88 712 l 617 712 l 617 651 l 165 61 l 604 61 l 604 0 l 75 0 l 75 61 l 532 651 l 88 651 l 88 712 m 384 970 l 492 970 l 330 808 l 273 808 l 384 970 z "},"Ą":{"ha":1012,"x_min":24,"x_max":1002,"o":"m 100 0 l 24 0 l 463 970 l 547 970 l 988 0 q 824 -155 824 -85 q 909 -235 824 -235 q 1002 -221 966 -235 l 1002 -275 q 901 -289 960 -289 q 758 -172 758 -289 q 903 0 758 -69 l 760 326 l 325 326 l 346 387 l 733 387 l 500 914 l 100 0 z "},"ą":{"ha":743,"x_min":68,"x_max":648,"o":"m 350 353 q 139 203 139 353 q 315 61 139 61 q 563 130 446 61 l 563 339 q 350 353 450 353 m 563 7 l 563 71 q 315 0 441 0 q 68 201 68 0 q 350 414 68 414 q 563 400 450 414 l 563 488 q 357 651 563 651 q 132 617 248 651 l 132 678 q 357 712 248 712 q 634 491 634 712 l 634 0 q 470 -155 470 -85 q 555 -235 470 -235 q 648 -221 612 -235 l 648 -275 q 547 -289 606 -289 q 404 -172 404 -289 q 563 7 404 -69 z "},"Ć":{"ha":953,"x_min":75,"x_max":854,"o":"m 854 34 q 583 -7 722 -7 q 75 498 75 -7 q 583 977 75 977 q 854 936 722 977 l 854 875 q 597 916 722 916 q 146 498 146 916 q 597 54 146 54 q 854 95 722 54 l 854 34 m 503 1227 l 610 1227 l 448 1065 l 391 1065 l 503 1227 z "},"ć":{"ha":682,"x_min":75,"x_max":624,"o":"m 624 20 q 434 0 536 0 q 75 370 75 0 q 434 712 75 712 q 624 692 536 712 l 624 631 q 441 651 529 651 q 153 370 153 651 q 441 61 153 61 q 624 81 529 61 l 624 20 m 387 970 l 495 970 l 333 808 l 276 808 l 387 970 z "},"Ń":{"ha":1021,"x_min":109,"x_max":912,"o":"m 109 0 l 109 970 l 200 970 l 848 121 l 848 970 l 912 970 l 912 0 l 854 0 l 173 890 l 173 0 l 109 0 m 549 1227 l 656 1227 l 494 1065 l 437 1065 l 549 1227 z "},"ń":{"ha":804,"x_min":109,"x_max":695,"o":"m 109 0 l 109 712 l 159 712 l 168 621 q 435 712 304 712 q 695 488 695 712 l 695 0 l 624 0 l 624 490 q 432 648 624 648 q 180 558 304 648 l 180 0 l 109 0 m 440 970 l 548 970 l 386 808 l 329 808 l 440 970 z "},"Ś":{"ha":888,"x_min":75,"x_max":814,"o":"m 102 34 l 102 109 q 438 54 254 54 q 743 285 743 54 q 545 454 743 454 l 345 454 q 75 699 75 454 q 471 977 75 977 q 787 936 634 977 l 787 868 q 471 916 634 916 q 146 699 146 916 q 345 522 146 522 l 545 522 q 814 285 814 522 q 438 -7 814 -7 q 102 34 254 -7 m 482 1227 l 590 1227 l 428 1065 l 371 1065 l 482 1227 z "},"ś":{"ha":699,"x_min":75,"x_max":627,"o":"m 98 34 l 98 102 q 331 61 216 61 q 555 203 555 61 q 389 319 555 319 l 298 319 q 75 509 75 319 q 371 712 75 712 q 604 678 485 712 l 604 610 q 371 651 485 651 q 146 509 146 651 q 298 387 146 387 l 389 387 q 627 203 627 387 q 331 0 627 0 q 98 34 216 0 m 390 970 l 498 970 l 336 808 l 279 808 l 390 970 z "},"Ę":{"ha":846,"x_min":109,"x_max":768,"o":"m 670 0 l 109 0 l 109 970 l 745 970 l 745 909 l 180 909 l 180 522 l 722 522 l 722 461 l 180 461 l 180 61 l 755 61 l 755 0 q 591 -155 591 -85 q 675 -235 591 -235 q 768 -221 733 -235 l 768 -275 q 667 -289 727 -289 q 524 -172 524 -289 q 670 0 524 -69 z "},"ę":{"ha":762,"x_min":75,"x_max":688,"o":"m 146 404 l 619 404 q 395 652 615 652 q 146 404 158 652 m 566 13 q 441 0 507 0 q 75 364 75 0 q 395 712 75 712 q 688 389 688 712 q 686 340 688 366 l 146 340 q 441 61 146 61 q 657 95 563 61 l 657 34 q 493 -155 493 -85 q 578 -235 493 -235 q 671 -221 635 -235 l 671 -275 q 570 -289 629 -289 q 427 -172 427 -289 q 566 13 427 -74 z "},"Č":{"ha":953,"x_min":75,"x_max":854,"o":"m 854 34 q 583 -7 722 -7 q 75 498 75 -7 q 583 977 75 977 q 854 936 722 977 l 854 875 q 597 916 722 916 q 146 498 146 916 q 597 54 146 54 q 854 95 722 54 l 854 34 m 370 1227 l 438 1227 l 538 1096 l 642 1227 l 709 1227 l 577 1051 l 503 1051 l 370 1227 z "},"č":{"ha":682,"x_min":75,"x_max":624,"o":"m 624 20 q 434 0 536 0 q 75 370 75 0 q 434 712 75 712 q 624 692 536 712 l 624 631 q 441 651 529 651 q 153 370 153 651 q 441 61 153 61 q 624 81 529 61 l 624 20 m 229 970 l 297 970 l 397 838 l 500 970 l 568 970 l 436 793 l 361 793 l 229 970 z "},"Ď":{"ha":1031,"x_min":109,"x_max":929,"o":"m 448 61 q 851 511 851 61 q 448 909 851 909 l 180 909 l 180 61 l 448 61 m 109 0 l 109 970 l 454 970 q 929 511 929 970 q 448 0 929 0 l 109 0 m 267 1227 l 334 1227 l 435 1096 l 538 1227 l 606 1227 l 473 1051 l 399 1051 l 267 1227 z "},"ď":{"ha":807,"x_min":75,"x_max":946,"o":"m 946 970 l 844 675 l 766 675 l 868 970 l 946 970 m 627 608 q 413 644 524 644 q 151 375 151 644 q 413 64 151 64 q 627 90 524 64 l 627 608 m 699 43 q 406 0 583 0 q 75 370 75 0 q 412 712 75 712 q 627 678 518 712 l 627 970 l 699 970 l 699 43 z "},"Ě":{"ha":846,"x_min":109,"x_max":755,"o":"m 745 970 l 745 909 l 180 909 l 180 522 l 722 522 l 722 461 l 180 461 l 180 61 l 755 61 l 755 0 l 109 0 l 109 970 l 745 970 m 262 1227 l 330 1227 l 431 1096 l 534 1227 l 602 1227 l 469 1051 l 395 1051 l 262 1227 z "},"ě":{"ha":777,"x_min":75,"x_max":688,"o":"m 395 712 q 688 389 688 712 q 686 340 688 366 l 146 340 q 441 61 146 61 q 657 95 563 61 l 657 34 q 441 0 563 0 q 75 364 75 0 q 395 712 75 712 m 146 404 l 619 404 q 395 652 615 652 q 146 404 158 652 m 225 970 l 293 970 l 393 838 l 496 970 l 564 970 l 432 793 l 357 793 l 225 970 z "},"Ň":{"ha":1021,"x_min":109,"x_max":912,"o":"m 109 0 l 109 970 l 200 970 l 848 121 l 848 970 l 912 970 l 912 0 l 854 0 l 173 890 l 173 0 l 109 0 m 341 1227 l 409 1227 l 509 1096 l 612 1227 l 680 1227 l 548 1051 l 473 1051 l 341 1227 z "},"ň":{"ha":804,"x_min":109,"x_max":695,"o":"m 109 0 l 109 712 l 159 712 l 168 621 q 435 712 304 712 q 695 488 695 712 l 695 0 l 624 0 l 624 490 q 432 648 624 648 q 180 558 304 648 l 180 0 l 109 0 m 233 970 l 300 970 l 401 838 l 504 970 l 572 970 l 439 793 l 365 793 l 233 970 z "},"Ř":{"ha":838,"x_min":109,"x_max":814,"o":"m 109 0 l 109 970 l 509 970 q 772 737 772 970 q 486 452 772 536 l 814 0 l 716 0 l 394 450 l 394 498 q 692 732 692 542 q 497 907 692 907 l 180 907 l 180 0 l 109 0 m 236 1227 l 304 1227 l 404 1096 l 507 1227 l 575 1227 l 443 1051 l 368 1051 l 236 1227 z "},"ř":{"ha":431,"x_min":88,"x_max":427,"o":"m 109 0 l 109 712 l 159 712 l 168 594 q 407 712 275 712 l 407 655 q 180 531 279 655 l 180 0 l 109 0 m 88 970 l 156 970 l 256 838 l 359 970 l 427 970 l 295 793 l 220 793 l 88 970 z "},"Ť":{"ha":743,"x_min":7,"x_max":736,"o":"m 736 970 l 736 909 l 404 909 l 404 0 l 332 0 l 332 909 l 7 909 l 7 970 l 736 970 m 202 1227 l 270 1227 l 370 1096 l 473 1227 l 541 1227 l 409 1051 l 334 1051 l 202 1227 z "},"ť":{"ha":425,"x_min":106,"x_max":583,"o":"m 106 827 l 149 827 l 162 712 l 369 712 l 369 651 l 175 651 l 175 201 q 278 61 175 61 l 369 61 l 369 0 l 279 0 q 106 192 106 0 l 106 827 m 583 970 l 481 675 l 403 675 l 505 970 l 583 970 z "},"Ů":{"ha":997,"x_min":109,"x_max":888,"o":"m 109 374 l 109 970 l 180 970 l 180 374 q 498 54 180 54 q 817 374 817 54 l 817 970 l 888 970 l 888 374 q 498 -7 888 -7 q 109 374 109 -7 m 406 1116 q 500 1023 406 1023 q 591 1116 591 1023 q 500 1206 591 1206 q 406 1116 406 1206 m 352 1114 q 500 1250 352 1250 q 645 1114 645 1250 q 500 979 645 979 q 352 1114 352 979 z "},"ů":{"ha":804,"x_min":109,"x_max":695,"o":"m 695 712 l 695 0 l 643 0 l 635 91 q 361 0 512 0 q 109 265 109 0 l 109 712 l 180 712 l 180 263 q 364 64 180 64 q 624 154 499 64 l 624 712 l 695 712 m 296 924 q 390 831 296 831 q 481 924 481 831 q 390 1015 481 1015 q 296 924 296 1015 m 242 923 q 390 1059 242 1059 q 535 923 535 1059 q 390 788 535 788 q 242 923 242 788 z "},"Ā":{"ha":1012,"x_min":24,"x_max":988,"o":"m 100 0 l 24 0 l 463 970 l 547 970 l 988 0 l 903 0 l 760 326 l 325 326 l 346 387 l 733 387 l 500 914 l 100 0 m 675 1227 l 675 1166 l 336 1166 l 336 1227 l 675 1227 z "},"ā":{"ha":743,"x_min":68,"x_max":634,"o":"m 68 201 q 350 414 68 414 q 563 400 450 414 l 563 488 q 357 651 563 651 q 132 617 248 651 l 132 678 q 357 712 248 712 q 634 491 634 712 l 634 0 l 591 0 l 574 71 q 315 0 441 0 q 68 201 68 0 m 350 353 q 139 203 139 353 q 315 61 139 61 q 563 130 446 61 l 563 339 q 350 353 450 353 m 548 970 l 548 909 l 209 909 l 209 970 l 548 970 z "},"Ă":{"ha":1012,"x_min":24,"x_max":988,"o":"m 100 0 l 24 0 l 463 970 l 547 970 l 988 0 l 903 0 l 760 326 l 325 326 l 346 387 l 733 387 l 500 914 l 100 0 m 333 1227 l 391 1227 q 506 1105 391 1105 q 621 1227 621 1105 l 679 1227 q 506 1051 679 1051 q 333 1227 333 1051 z "},"ă":{"ha":743,"x_min":68,"x_max":634,"o":"m 68 201 q 350 414 68 414 q 563 400 450 414 l 563 488 q 357 651 563 651 q 132 617 248 651 l 132 678 q 357 712 248 712 q 634 491 634 712 l 634 0 l 591 0 l 574 71 q 315 0 441 0 q 68 201 68 0 m 350 353 q 139 203 139 353 q 315 61 139 61 q 563 130 446 61 l 563 339 q 350 353 450 353 m 205 970 l 263 970 q 378 848 263 848 q 494 970 494 848 l 551 970 q 378 793 551 793 q 205 970 205 793 z "},"Ĉ":{"ha":953,"x_min":75,"x_max":854,"o":"m 854 34 q 583 -7 722 -7 q 75 498 75 -7 q 583 977 75 977 q 854 936 722 977 l 854 875 q 597 916 722 916 q 146 498 146 916 q 597 54 146 54 q 854 95 722 54 l 854 34 m 536 1227 l 610 1227 l 743 1051 l 675 1051 l 572 1183 l 471 1051 l 404 1051 l 536 1227 z "},"ĉ":{"ha":682,"x_min":75,"x_max":624,"o":"m 624 20 q 434 0 536 0 q 75 370 75 0 q 434 712 75 712 q 624 692 536 712 l 624 631 q 441 651 529 651 q 153 370 153 651 q 441 61 153 61 q 624 81 529 61 l 624 20 m 366 970 l 441 970 l 573 793 l 505 793 l 402 925 l 302 793 l 234 793 l 366 970 z "},"Ċ":{"ha":953,"x_min":75,"x_max":854,"o":"m 854 34 q 583 -7 722 -7 q 75 498 75 -7 q 583 977 75 977 q 854 936 722 977 l 854 875 q 597 916 722 916 q 146 498 146 916 q 597 54 146 54 q 854 95 722 54 l 854 34 m 643 1227 l 643 1126 l 531 1126 l 531 1227 l 643 1227 z "},"ċ":{"ha":682,"x_min":75,"x_max":624,"o":"m 624 20 q 434 0 536 0 q 75 370 75 0 q 434 712 75 712 q 624 692 536 712 l 624 631 q 441 651 529 651 q 153 370 153 651 q 441 61 153 61 q 624 81 529 61 l 624 20 m 480 970 l 480 868 l 368 868 l 368 970 l 480 970 z "},"Đ":{"ha":1031,"x_min":-27,"x_max":929,"o":"m 180 522 l 481 522 l 481 461 l 180 461 l 180 61 l 448 61 q 851 511 851 61 q 448 909 851 909 l 180 909 l 180 522 m 109 461 l -27 461 l -27 522 l 109 522 l 109 970 l 454 970 q 929 511 929 970 q 448 0 929 0 l 109 0 l 109 461 z "},"đ":{"ha":807,"x_min":75,"x_max":699,"o":"m 627 608 q 413 644 524 644 q 151 375 151 644 q 413 64 151 64 q 627 90 524 64 l 627 608 m 627 793 l 95 793 l 95 854 l 627 854 l 627 970 l 699 970 l 699 43 q 406 0 583 0 q 75 370 75 0 q 412 712 75 712 q 627 678 518 712 l 627 793 z "},"Ē":{"ha":846,"x_min":109,"x_max":755,"o":"m 745 970 l 745 909 l 180 909 l 180 522 l 722 522 l 722 461 l 180 461 l 180 61 l 755 61 l 755 0 l 109 0 l 109 970 l 745 970 m 602 1227 l 602 1166 l 262 1166 l 262 1227 l 602 1227 z "},"ē":{"ha":777,"x_min":75,"x_max":688,"o":"m 395 712 q 688 389 688 712 q 686 340 688 366 l 146 340 q 441 61 146 61 q 657 95 563 61 l 657 34 q 441 0 563 0 q 75 364 75 0 q 395 712 75 712 m 146 404 l 619 404 q 395 652 615 652 q 146 404 158 652 m 564 970 l 564 909 l 225 909 l 225 970 l 564 970 z "},"Ĕ":{"ha":846,"x_min":109,"x_max":755,"o":"m 745 970 l 745 909 l 180 909 l 180 522 l 722 522 l 722 461 l 180 461 l 180 61 l 755 61 l 755 0 l 109 0 l 109 970 l 745 970 m 259 1227 l 317 1227 q 432 1105 317 1105 q 547 1227 547 1105 l 605 1227 q 432 1051 605 1051 q 259 1227 259 1051 z "},"ĕ":{"ha":777,"x_min":75,"x_max":688,"o":"m 395 712 q 688 389 688 712 q 686 340 688 366 l 146 340 q 441 61 146 61 q 657 95 563 61 l 657 34 q 441 0 563 0 q 75 364 75 0 q 395 712 75 712 m 146 404 l 619 404 q 395 652 615 652 q 146 404 158 652 m 222 970 l 279 970 q 395 848 279 848 q 510 970 510 848 l 568 970 q 395 793 568 793 q 222 970 222 793 z "},"Ė":{"ha":846,"x_min":109,"x_max":755,"o":"m 745 970 l 745 909 l 180 909 l 180 522 l 722 522 l 722 461 l 180 461 l 180 61 l 755 61 l 755 0 l 109 0 l 109 970 l 745 970 m 488 1227 l 488 1126 l 376 1126 l 376 1227 l 488 1227 z "},"ė":{"ha":777,"x_min":75,"x_max":688,"o":"m 395 712 q 688 389 688 712 q 686 340 688 366 l 146 340 q 441 61 146 61 q 657 95 563 61 l 657 34 q 441 0 563 0 q 75 364 75 0 q 395 712 75 712 m 146 404 l 619 404 q 395 652 615 652 q 146 404 158 652 m 444 970 l 444 868 l 332 868 l 332 970 l 444 970 z "},"Ĝ":{"ha":953,"x_min":75,"x_max":854,"o":"m 854 38 q 595 -7 730 -7 q 75 498 75 -7 q 583 977 75 977 q 854 936 722 977 l 854 875 q 597 916 722 916 q 146 498 146 916 q 584 54 146 54 q 783 84 673 54 l 783 441 l 854 441 l 854 38 m 529 1227 l 604 1227 l 736 1051 l 668 1051 l 565 1183 l 465 1051 l 397 1051 l 529 1227 z "},"ĝ":{"ha":805,"x_min":75,"x_max":696,"o":"m 625 632 q 432 648 527 648 q 144 361 144 648 q 413 68 144 68 q 625 104 511 68 l 625 632 m 696 0 q 382 -258 696 -258 q 149 -224 251 -258 l 149 -163 q 384 -197 253 -197 q 625 0 625 -197 l 625 34 q 412 0 505 0 q 75 360 75 0 q 437 712 75 712 q 696 683 575 712 l 696 0 m 382 970 l 457 970 l 589 793 l 522 793 l 418 925 l 318 793 l 250 793 l 382 970 z "},"Ğ":{"ha":953,"x_min":75,"x_max":854,"o":"m 854 38 q 595 -7 730 -7 q 75 498 75 -7 q 583 977 75 977 q 854 936 722 977 l 854 875 q 597 916 722 916 q 146 498 146 916 q 584 54 146 54 q 783 84 673 54 l 783 441 l 854 441 l 854 38 m 373 1227 l 431 1227 q 546 1105 431 1105 q 661 1227 661 1105 l 719 1227 q 546 1051 719 1051 q 373 1227 373 1051 z "},"ğ":{"ha":805,"x_min":75,"x_max":696,"o":"m 625 632 q 432 648 527 648 q 144 361 144 648 q 413 68 144 68 q 625 104 511 68 l 625 632 m 696 0 q 382 -258 696 -258 q 149 -224 251 -258 l 149 -163 q 384 -197 253 -197 q 625 0 625 -197 l 625 34 q 412 0 505 0 q 75 360 75 0 q 437 712 75 712 q 696 683 575 712 l 696 0 m 233 970 l 291 970 q 406 848 291 848 q 522 970 522 848 l 579 970 q 406 793 579 793 q 233 970 233 793 z "},"Ġ":{"ha":953,"x_min":75,"x_max":854,"o":"m 854 38 q 595 -7 730 -7 q 75 498 75 -7 q 583 977 75 977 q 854 936 722 977 l 854 875 q 597 916 722 916 q 146 498 146 916 q 584 54 146 54 q 783 84 673 54 l 783 441 l 854 441 l 854 38 m 623 1227 l 623 1126 l 511 1126 l 511 1227 l 623 1227 z "},"ġ":{"ha":805,"x_min":75,"x_max":696,"o":"m 625 632 q 432 648 527 648 q 144 361 144 648 q 413 68 144 68 q 625 104 511 68 l 625 632 m 696 0 q 382 -258 696 -258 q 149 -224 251 -258 l 149 -163 q 384 -197 253 -197 q 625 0 625 -197 l 625 34 q 412 0 505 0 q 75 360 75 0 q 437 712 75 712 q 696 683 575 712 l 696 0 m 489 970 l 489 868 l 377 868 l 377 970 l 489 970 z "},"Ģ":{"ha":953,"x_min":75,"x_max":854,"o":"m 854 38 q 595 -7 730 -7 q 75 498 75 -7 q 583 977 75 977 q 854 936 722 977 l 854 875 q 597 916 722 916 q 146 498 146 916 q 584 54 146 54 q 783 84 673 54 l 783 441 l 854 441 l 854 38 m 551 -68 l 450 -258 l 378 -258 l 480 -68 l 551 -68 z "},"ģ":{"ha":805,"x_min":75,"x_max":696,"o":"m 625 632 q 412 648 507 648 q 144 361 144 648 q 399 68 144 68 q 625 104 497 68 l 625 632 m 696 0 q 382 -258 696 -258 q 149 -224 251 -258 l 149 -163 q 384 -197 253 -197 q 625 0 625 -197 l 625 34 q 399 0 491 0 q 75 360 75 0 q 417 712 75 712 q 696 683 562 712 l 696 0 m 525 970 l 423 780 l 352 780 l 454 970 l 525 970 z "},"Ĥ":{"ha":1021,"x_min":109,"x_max":912,"o":"m 109 0 l 109 970 l 180 970 l 180 522 l 841 522 l 841 970 l 912 970 l 912 0 l 841 0 l 841 461 l 180 461 l 180 0 l 109 0 m 473 1227 l 548 1227 l 680 1051 l 612 1051 l 509 1183 l 409 1051 l 341 1051 l 473 1227 z "},"ĥ":{"ha":804,"x_min":-18,"x_max":695,"o":"m 109 0 l 109 970 l 180 970 l 180 635 q 435 712 304 712 q 695 447 695 712 l 695 0 l 624 0 l 624 476 q 432 648 624 648 q 180 558 304 648 l 180 0 l 109 0 m 114 1244 l 189 1244 l 321 1068 l 253 1068 l 150 1200 l 50 1068 l -18 1068 l 114 1244 z "},"Ħ":{"ha":1021,"x_min":109,"x_max":912,"o":"m 841 773 l 841 970 l 912 970 l 912 0 l 841 0 l 841 461 l 180 461 l 180 0 l 109 0 l 109 970 l 180 970 l 180 773 l 841 773 m 180 712 l 180 522 l 841 522 l 841 712 l 180 712 z "},"ħ":{"ha":804,"x_min":109,"x_max":695,"o":"m 180 793 l 180 635 q 435 712 304 712 q 695 447 695 712 l 695 0 l 624 0 l 624 476 q 432 648 624 648 q 180 558 304 648 l 180 0 l 109 0 l 109 970 l 180 970 l 180 854 l 695 854 l 695 793 l 180 793 z "},"Ĩ":{"ha":356,"x_min":9,"x_max":348,"o":"m 214 970 l 214 0 l 143 0 l 143 970 l 214 970 m 9 1196 q 97 1227 50 1227 q 172 1210 132 1227 q 249 1192 211 1192 q 348 1223 300 1192 l 348 1162 q 260 1131 307 1131 q 185 1149 224 1131 q 108 1166 146 1166 q 9 1135 57 1166 l 9 1196 z "},"ĩ":{"ha":302,"x_min":-18,"x_max":321,"o":"m 187 712 l 187 0 l 116 0 l 116 712 l 187 712 m -18 939 q 70 970 22 970 q 144 952 105 970 q 222 935 184 935 q 321 966 273 935 l 321 905 q 233 873 280 873 q 158 891 197 873 q 81 909 119 909 q -18 878 30 909 l -18 939 z "},"Ī":{"ha":356,"x_min":9,"x_max":348,"o":"m 214 970 l 214 0 l 143 0 l 143 970 l 214 970 m 348 1227 l 348 1166 l 9 1166 l 9 1227 l 348 1227 z "},"ī":{"ha":302,"x_min":-18,"x_max":321,"o":"m 187 712 l 187 0 l 116 0 l 116 712 l 187 712 m 321 970 l 321 909 l -18 909 l -18 970 l 321 970 z "},"Ĭ":{"ha":356,"x_min":5,"x_max":351,"o":"m 214 970 l 214 0 l 143 0 l 143 970 l 214 970 m 5 1227 l 63 1227 q 178 1105 63 1105 q 294 1227 294 1105 l 351 1227 q 178 1051 351 1051 q 5 1227 5 1051 z "},"ĭ":{"ha":302,"x_min":-22,"x_max":324,"o":"m 187 712 l 187 0 l 116 0 l 116 712 l 187 712 m -22 970 l 36 970 q 151 848 36 848 q 267 970 267 848 l 324 970 q 151 793 324 793 q -22 970 -22 793 z "},"Į":{"ha":356,"x_min":-3,"x_max":241,"o":"m 142 0 l 142 970 l 214 970 l 214 0 q 63 -155 63 -85 q 148 -235 63 -235 q 241 -221 205 -235 l 241 -275 q 140 -289 199 -289 q -3 -172 -3 -289 q 142 0 -3 -69 z "},"į":{"ha":315,"x_min":-24,"x_max":220,"o":"m 200 970 l 200 888 l 115 888 l 115 970 l 200 970 m 122 0 l 122 712 l 193 712 l 193 0 q 43 -155 43 -85 q 127 -235 43 -235 q 220 -221 185 -235 l 220 -275 q 119 -289 179 -289 q -24 -172 -24 -289 q 122 0 -24 -69 z "},"İ":{"ha":356,"x_min":122,"x_max":234,"o":"m 214 970 l 214 0 l 142 0 l 142 970 l 214 970 m 234 1227 l 234 1126 l 122 1126 l 122 1227 l 234 1227 z "},"Ĳ":{"ha":797,"x_min":142,"x_max":688,"o":"m 214 970 l 214 0 l 142 0 l 142 970 l 214 970 m 688 970 l 688 279 q 380 0 688 0 l 380 61 q 617 279 617 61 l 617 970 l 688 970 z "},"ĳ":{"ha":631,"x_min":115,"x_max":515,"o":"m 200 970 l 200 888 l 115 888 l 115 970 l 200 970 m 193 712 l 193 0 l 122 0 l 122 712 l 193 712 m 515 970 l 515 888 l 431 888 l 431 970 l 515 970 m 509 712 l 509 54 q 404 -250 509 -161 l 353 -205 q 437 54 437 -127 l 437 712 l 509 712 z "},"Ĵ":{"ha":441,"x_min":24,"x_max":463,"o":"m 333 970 l 333 279 q 24 0 333 0 l 24 61 q 262 279 262 61 l 262 970 l 333 970 m 256 1227 l 331 1227 l 463 1051 l 395 1051 l 292 1183 l 192 1051 l 124 1051 l 256 1227 z "},"ĵ":{"ha":315,"x_min":-14,"x_max":326,"o":"m 193 712 l 193 54 q 88 -250 193 -161 l 37 -205 q 122 54 122 -127 l 122 712 l 193 712 m 119 970 l 193 970 l 326 793 l 258 793 l 155 925 l 54 793 l -14 793 l 119 970 z "},"Ķ":{"ha":882,"x_min":109,"x_max":861,"o":"m 180 970 l 180 0 l 109 0 l 109 970 l 180 970 m 845 970 l 383 511 l 861 0 l 755 0 l 312 487 l 312 529 l 747 970 l 845 970 m 504 -68 l 402 -258 l 331 -258 l 433 -68 l 504 -68 z "},"ķ":{"ha":750,"x_min":102,"x_max":716,"o":"m 102 0 l 102 970 l 173 970 l 173 650 q 446 712 297 712 q 699 507 699 712 q 475 294 699 351 l 716 0 l 612 0 l 385 295 l 385 338 q 627 507 627 366 q 431 651 627 651 q 173 587 300 651 l 173 0 l 102 0 m 462 -68 l 360 -258 l 289 -258 l 391 -68 l 462 -68 z "},"ĸ":{"ha":680,"x_min":102,"x_max":680,"o":"m 675 712 l 343 386 l 680 0 l 580 0 l 279 356 l 279 406 l 582 712 l 675 712 m 102 0 l 102 712 l 173 712 l 173 0 l 102 0 z "},"Ĺ":{"ha":775,"x_min":74,"x_max":741,"o":"m 180 970 l 180 61 l 741 61 l 741 0 l 109 0 l 109 970 l 180 970 m 185 1227 l 293 1227 l 131 1065 l 74 1065 l 185 1227 z "},"ĺ":{"ha":315,"x_min":48,"x_max":267,"o":"m 193 970 l 193 0 l 122 0 l 122 970 l 193 970 m 159 1244 l 267 1244 l 105 1082 l 48 1082 l 159 1244 z "},"Ļ":{"ha":775,"x_min":109,"x_max":741,"o":"m 180 970 l 180 61 l 741 61 l 741 0 l 109 0 l 109 970 l 180 970 m 477 -68 l 376 -258 l 304 -258 l 406 -68 l 477 -68 z "},"ļ":{"ha":315,"x_min":17,"x_max":193,"o":"m 193 970 l 193 0 l 122 0 l 122 970 l 193 970 m 190 -68 l 88 -258 l 17 -258 l 119 -68 l 190 -68 z "},"Ľ":{"ha":775,"x_min":109,"x_max":741,"o":"m 180 970 l 180 61 l 741 61 l 741 0 l 109 0 l 109 970 l 180 970 m 509 970 l 407 675 l 329 675 l 431 970 l 509 970 z "},"ľ":{"ha":315,"x_min":122,"x_max":441,"o":"m 193 970 l 193 0 l 122 0 l 122 970 l 193 970 m 441 970 l 339 675 l 261 675 l 363 970 l 441 970 z "},"Ŀ":{"ha":775,"x_min":109,"x_max":741,"o":"m 180 970 l 180 61 l 741 61 l 741 0 l 109 0 l 109 970 l 180 970 m 387 485 q 451 549 387 549 q 515 485 515 549 q 451 420 515 420 q 387 485 387 420 z "},"ŀ":{"ha":315,"x_min":122,"x_max":410,"o":"m 193 970 l 193 0 l 122 0 l 122 970 l 193 970 m 281 384 q 345 448 281 448 q 410 384 410 448 q 345 319 410 319 q 281 384 281 319 z "},"Ņ":{"ha":1021,"x_min":109,"x_max":912,"o":"m 109 0 l 109 970 l 200 970 l 848 121 l 848 970 l 912 970 l 912 0 l 854 0 l 173 890 l 173 0 l 109 0 m 563 -68 l 461 -258 l 390 -258 l 492 -68 l 563 -68 z "},"ņ":{"ha":804,"x_min":109,"x_max":695,"o":"m 109 0 l 109 712 l 159 712 l 168 621 q 435 712 304 712 q 695 488 695 712 l 695 0 l 624 0 l 624 490 q 432 648 624 648 q 180 558 304 648 l 180 0 l 109 0 m 454 -68 l 353 -258 l 281 -258 l 383 -68 l 454 -68 z "},"ŉ":{"ha":804,"x_min":-102,"x_max":695,"o":"m 109 0 l 109 712 l 159 712 l 168 621 q 435 712 304 712 q 695 488 695 712 l 695 0 l 624 0 l 624 490 q 432 648 624 648 q 180 558 304 648 l 180 0 l 109 0 m 78 970 l -24 675 l -102 675 l 0 970 l 78 970 z "},"Ŋ":{"ha":1021,"x_min":109,"x_max":912,"o":"m 848 970 l 912 970 l 912 54 q 807 -250 912 -161 l 756 -205 q 846 11 836 -137 l 173 890 l 173 0 l 109 0 l 109 970 l 200 970 l 848 121 l 848 970 z "},"ŋ":{"ha":804,"x_min":109,"x_max":695,"o":"m 624 490 q 432 648 624 648 q 180 558 304 648 l 180 0 l 109 0 l 109 712 l 159 712 l 168 621 q 435 712 304 712 q 695 488 695 712 l 695 54 q 590 -250 695 -161 l 539 -205 q 624 54 624 -127 l 624 490 z "},"Ō":{"ha":1116,"x_min":75,"x_max":1041,"o":"m 153 488 q 562 54 153 54 q 963 488 963 54 q 562 916 963 916 q 153 488 153 916 m 75 484 q 562 977 75 977 q 1041 484 1041 977 q 562 -7 1041 -7 q 75 484 75 -7 m 728 1227 l 728 1166 l 389 1166 l 389 1227 l 728 1227 z "},"ō":{"ha":814,"x_min":75,"x_max":739,"o":"m 146 359 q 407 54 146 54 q 668 359 668 54 q 407 658 668 658 q 146 359 146 658 m 75 356 q 407 719 75 719 q 739 356 739 719 q 407 -6 739 -6 q 75 356 76 -6 m 576 970 l 576 909 l 237 909 l 237 970 l 576 970 z "},"Ŏ":{"ha":1116,"x_min":75,"x_max":1041,"o":"m 153 488 q 562 54 153 54 q 963 488 963 54 q 562 916 963 916 q 153 488 153 916 m 75 484 q 562 977 75 977 q 1041 484 1041 977 q 562 -7 1041 -7 q 75 484 75 -7 m 385 1227 l 443 1227 q 558 1105 443 1105 q 673 1227 673 1105 l 731 1227 q 558 1051 731 1051 q 385 1227 385 1051 z "},"ŏ":{"ha":814,"x_min":75,"x_max":739,"o":"m 146 359 q 407 54 146 54 q 668 359 668 54 q 407 658 668 658 q 146 359 146 658 m 75 356 q 407 719 75 719 q 739 356 739 719 q 407 -6 739 -6 q 75 356 76 -6 m 234 970 l 292 970 q 407 848 292 848 q 522 970 522 848 l 580 970 q 407 793 580 793 q 234 970 234 793 z "},"Ő":{"ha":1116,"x_min":75,"x_max":1041,"o":"m 153 488 q 562 54 153 54 q 963 488 963 54 q 562 916 963 916 q 153 488 153 916 m 75 484 q 562 977 75 977 q 1041 484 1041 977 q 562 -7 1041 -7 q 75 484 75 -7 m 498 1227 l 606 1227 l 444 1065 l 387 1065 l 498 1227 m 689 1227 l 797 1227 l 635 1065 l 578 1065 l 689 1227 z "},"ő":{"ha":814,"x_min":75,"x_max":739,"o":"m 146 359 q 407 54 146 54 q 668 359 668 54 q 407 658 668 658 q 146 359 146 658 m 75 356 q 407 719 75 719 q 739 356 739 719 q 407 -6 739 -6 q 75 356 76 -6 m 347 970 l 455 970 l 293 808 l 236 808 l 347 970 m 538 970 l 646 970 l 484 808 l 427 808 l 538 970 z "},"Ŕ":{"ha":838,"x_min":109,"x_max":814,"o":"m 109 0 l 109 970 l 509 970 q 772 737 772 970 q 486 452 772 536 l 814 0 l 716 0 l 394 450 l 394 498 q 692 732 692 542 q 497 907 692 907 l 180 907 l 180 0 l 109 0 m 431 1227 l 539 1227 l 377 1065 l 320 1065 l 431 1227 z "},"ŕ":{"ha":431,"x_min":109,"x_max":407,"o":"m 109 0 l 109 712 l 159 712 l 168 594 q 407 712 275 712 l 407 655 q 180 531 279 655 l 180 0 l 109 0 m 296 970 l 404 970 l 241 808 l 184 808 l 296 970 z "},"Ŗ":{"ha":838,"x_min":109,"x_max":814,"o":"m 109 0 l 109 970 l 509 970 q 772 737 772 970 q 486 452 772 536 l 814 0 l 716 0 l 394 450 l 394 498 q 692 732 692 542 q 497 907 692 907 l 180 907 l 180 0 l 109 0 m 480 -68 l 378 -258 l 307 -258 l 409 -68 l 480 -68 z "},"ŗ":{"ha":431,"x_min":2,"x_max":407,"o":"m 109 0 l 109 712 l 159 712 l 168 594 q 407 712 275 712 l 407 655 q 180 531 279 655 l 180 0 l 109 0 m 175 -68 l 73 -258 l 2 -258 l 104 -68 l 175 -68 z "},"Ŝ":{"ha":888,"x_min":75,"x_max":814,"o":"m 102 34 l 102 109 q 438 54 254 54 q 743 285 743 54 q 545 454 743 454 l 345 454 q 75 699 75 454 q 471 977 75 977 q 787 936 634 977 l 787 868 q 471 916 634 916 q 146 699 146 916 q 345 522 146 522 l 545 522 q 814 285 814 522 q 438 -7 814 -7 q 102 34 254 -7 m 427 1227 l 502 1227 l 634 1051 l 566 1051 l 463 1183 l 363 1051 l 295 1051 l 427 1227 z "},"ŝ":{"ha":699,"x_min":75,"x_max":627,"o":"m 98 34 l 98 102 q 331 61 216 61 q 555 203 555 61 q 389 319 555 319 l 298 319 q 75 509 75 319 q 371 712 75 712 q 604 678 485 712 l 604 610 q 371 651 485 651 q 146 509 146 651 q 298 387 146 387 l 389 387 q 627 203 627 387 q 331 0 627 0 q 98 34 216 0 m 315 970 l 389 970 l 522 793 l 454 793 l 351 925 l 250 793 l 182 793 l 315 970 z "},"Ş":{"ha":888,"x_min":75,"x_max":814,"o":"m 385 -6 q 102 34 232 -1 l 102 109 q 438 54 254 54 q 743 285 743 54 q 545 454 743 454 l 345 454 q 75 699 75 454 q 471 977 75 977 q 787 936 634 977 l 787 868 q 471 916 634 916 q 146 699 146 916 q 345 522 146 522 l 545 522 q 814 285 814 522 q 452 -7 814 -1 l 427 -52 q 579 -169 579 -52 q 416 -286 579 -286 q 269 -252 342 -286 l 269 -193 q 416 -233 342 -233 q 516 -169 516 -233 q 433 -105 516 -105 l 329 -105 l 385 -6 z "},"ş":{"ha":699,"x_min":72,"x_max":624,"o":"m 314 0 q 95 34 206 2 l 95 102 q 328 61 214 61 q 553 203 553 61 q 387 319 553 319 l 296 319 q 72 509 72 319 q 368 712 72 712 q 601 678 482 712 l 601 610 q 368 651 482 651 q 143 509 143 651 q 296 387 143 387 l 387 387 q 624 203 624 387 q 381 2 624 19 l 353 -52 q 505 -169 505 -52 q 341 -286 505 -286 q 195 -252 268 -286 l 195 -193 q 341 -233 268 -233 q 441 -169 441 -233 q 358 -105 441 -105 l 254 -105 l 314 0 z "},"Ș":{"ha":888,"x_min":75,"x_max":814,"o":"m 102 34 l 102 109 q 438 54 254 54 q 743 285 743 54 q 545 454 743 454 l 345 454 q 75 699 75 454 q 471 977 75 977 q 787 936 634 977 l 787 868 q 471 916 634 916 q 146 699 146 916 q 345 522 146 522 l 545 522 q 814 285 814 522 q 438 -7 814 -7 q 102 34 254 -7 m 497 -68 l 395 -258 l 324 -258 l 426 -68 l 497 -68 z "},"ș":{"ha":699,"x_min":75,"x_max":627,"o":"m 98 34 l 98 102 q 331 61 216 61 q 555 203 555 61 q 389 319 555 319 l 298 319 q 75 509 75 319 q 371 712 75 712 q 604 678 485 712 l 604 610 q 371 651 485 651 q 146 509 146 651 q 298 387 146 387 l 389 387 q 627 203 627 387 q 331 0 627 0 q 98 34 216 0 m 439 -68 l 337 -258 l 266 -258 l 368 -68 l 439 -68 z "},"Ţ":{"ha":743,"x_min":7,"x_max":736,"o":"m 736 970 l 736 909 l 404 909 l 404 0 l 332 0 l 332 909 l 7 909 l 7 970 l 736 970 m 397 -68 l 296 -258 l 224 -258 l 326 -68 l 397 -68 z "},"ţ":{"ha":425,"x_min":85,"x_max":382,"o":"m 106 827 l 156 827 l 169 712 l 382 712 l 382 651 l 175 651 l 175 201 q 278 61 175 61 l 382 61 l 382 0 l 279 0 q 106 192 106 0 l 106 827 m 258 -68 l 156 -258 l 85 -258 l 186 -68 l 258 -68 z "},"Ŧ":{"ha":743,"x_min":7,"x_max":736,"o":"m 332 515 l 332 909 l 7 909 l 7 970 l 736 970 l 736 909 l 404 909 l 404 515 l 736 515 l 736 454 l 404 454 l 404 0 l 332 0 l 332 454 l 7 454 l 7 515 l 332 515 z "},"ŧ":{"ha":425,"x_min":0,"x_max":382,"o":"m 106 402 l 106 827 l 156 827 l 169 712 l 382 712 l 382 651 l 175 651 l 175 402 l 382 402 l 382 341 l 175 341 l 175 201 q 278 61 175 61 l 382 61 l 382 0 l 279 0 q 106 192 106 0 l 106 341 l 0 341 l 0 402 l 106 402 z "},"Ũ":{"ha":997,"x_min":109,"x_max":888,"o":"m 109 374 l 109 970 l 180 970 l 180 374 q 498 54 180 54 q 817 374 817 54 l 817 970 l 888 970 l 888 374 q 498 -7 888 -7 q 109 374 109 -7 m 329 1196 q 417 1227 370 1227 q 492 1210 452 1227 q 569 1192 531 1192 q 668 1223 620 1192 l 668 1162 q 580 1131 627 1131 q 505 1149 545 1131 q 428 1166 466 1166 q 329 1135 377 1166 l 329 1196 z "},"ũ":{"ha":804,"x_min":109,"x_max":695,"o":"m 695 712 l 695 0 l 643 0 l 635 91 q 361 0 512 0 q 109 265 109 0 l 109 712 l 180 712 l 180 263 q 364 64 180 64 q 624 154 499 64 l 624 712 l 695 712 m 219 939 q 307 970 260 970 q 382 952 342 970 q 459 935 421 935 q 558 966 510 935 l 558 905 q 470 873 517 873 q 395 891 435 873 q 318 909 356 909 q 219 878 267 909 l 219 939 z "},"Ū":{"ha":997,"x_min":109,"x_max":888,"o":"m 109 374 l 109 970 l 180 970 l 180 374 q 498 54 180 54 q 817 374 817 54 l 817 970 l 888 970 l 888 374 q 498 -7 888 -7 q 109 374 109 -7 m 668 1227 l 668 1166 l 329 1166 l 329 1227 l 668 1227 z "},"ū":{"ha":804,"x_min":109,"x_max":695,"o":"m 695 712 l 695 0 l 643 0 l 635 91 q 361 0 512 0 q 109 265 109 0 l 109 712 l 180 712 l 180 263 q 364 64 180 64 q 624 154 499 64 l 624 712 l 695 712 m 558 970 l 558 909 l 219 909 l 219 970 l 558 970 z "},"Ŭ":{"ha":997,"x_min":109,"x_max":888,"o":"m 109 374 l 109 970 l 180 970 l 180 374 q 498 54 180 54 q 817 374 817 54 l 817 970 l 888 970 l 888 374 q 498 -7 888 -7 q 109 374 109 -7 m 326 1227 l 383 1227 q 498 1105 383 1105 q 614 1227 614 1105 l 671 1227 q 498 1051 671 1051 q 326 1227 326 1051 z "},"ŭ":{"ha":804,"x_min":109,"x_max":695,"o":"m 695 712 l 695 0 l 643 0 l 635 91 q 361 0 512 0 q 109 265 109 0 l 109 712 l 180 712 l 180 263 q 364 64 180 64 q 624 154 499 64 l 624 712 l 695 712 m 216 970 l 273 970 q 389 848 273 848 q 504 970 504 848 l 562 970 q 389 793 562 793 q 216 970 216 793 z "},"Ű":{"ha":997,"x_min":109,"x_max":888,"o":"m 109 374 l 109 970 l 180 970 l 180 374 q 498 54 180 54 q 817 374 817 54 l 817 970 l 888 970 l 888 374 q 498 -7 888 -7 q 109 374 109 -7 m 439 1227 l 547 1227 l 385 1065 l 328 1065 l 439 1227 m 629 1227 l 737 1227 l 575 1065 l 518 1065 l 629 1227 z "},"ű":{"ha":804,"x_min":109,"x_max":695,"o":"m 695 712 l 695 0 l 643 0 l 635 91 q 361 0 512 0 q 109 265 109 0 l 109 712 l 180 712 l 180 263 q 364 64 180 64 q 624 154 499 64 l 624 712 l 695 712 m 329 970 l 437 970 l 275 808 l 218 808 l 329 970 m 519 970 l 627 970 l 465 808 l 408 808 l 519 970 z "},"Ų":{"ha":997,"x_min":109,"x_max":888,"o":"m 491 -7 q 109 374 109 -3 l 109 970 l 180 970 l 180 374 q 498 54 180 54 q 817 374 817 54 l 817 970 l 888 970 l 888 374 q 570 -3 888 30 q 425 -155 425 -87 q 510 -235 425 -235 q 603 -221 568 -235 l 603 -275 q 502 -289 562 -289 q 359 -172 359 -289 q 491 -7 359 -74 z "},"ų":{"ha":804,"x_min":109,"x_max":709,"o":"m 624 7 l 624 91 q 361 0 512 0 q 109 265 109 0 l 109 712 l 180 712 l 180 263 q 364 64 180 64 q 624 154 499 64 l 624 712 l 695 712 l 695 0 q 531 -155 531 -85 q 616 -235 531 -235 q 709 -221 673 -235 l 709 -275 q 608 -289 667 -289 q 465 -172 465 -289 q 624 7 465 -69 z "},"Ŵ":{"ha":1267,"x_min":24,"x_max":1211,"o":"m 24 970 l 98 970 l 256 68 l 569 970 l 640 970 l 962 60 l 1142 970 l 1211 970 l 1015 0 l 911 0 l 605 886 l 298 0 l 197 0 l 24 970 m 580 1227 l 654 1227 l 787 1051 l 719 1051 l 616 1183 l 515 1051 l 448 1051 l 580 1227 z "},"ŵ":{"ha":1044,"x_min":41,"x_max":1003,"o":"m 41 712 l 113 712 l 267 86 l 492 712 l 545 712 l 777 100 l 933 712 l 1003 712 l 817 0 l 743 0 l 519 607 l 298 0 l 221 0 l 41 712 m 485 970 l 559 970 l 692 793 l 624 793 l 521 925 l 420 793 l 353 793 l 485 970 z "},"Ŷ":{"ha":848,"x_min":24,"x_max":824,"o":"m 24 970 l 109 970 l 422 407 l 746 970 l 824 970 l 460 339 l 460 0 l 389 0 l 389 339 l 24 970 m 387 1227 l 461 1227 l 593 1051 l 526 1051 l 422 1183 l 322 1051 l 254 1051 l 387 1227 z "},"ŷ":{"ha":733,"x_min":24,"x_max":709,"o":"m 24 712 l 106 712 l 370 69 l 631 712 l 709 712 l 400 -21 q 164 -263 321 -215 l 143 -206 q 332 -11 267 -161 l 24 712 m 330 970 l 404 970 l 536 793 l 469 793 l 366 925 l 265 793 l 197 793 l 330 970 z "},"ſ":{"ha":330,"x_min":109,"x_max":553,"o":"m 109 0 l 109 747 q 395 1005 109 1005 q 553 978 482 1005 l 553 917 q 394 944 486 944 q 180 745 180 944 l 180 0 l 109 0 z "},"Ё":{"ha":846,"x_min":109,"x_max":755,"o":"m 745 970 l 745 909 l 180 909 l 180 522 l 722 522 l 722 461 l 180 461 l 180 61 l 755 61 l 755 0 l 109 0 l 109 970 l 745 970 m 586 1214 l 586 1126 l 494 1126 l 494 1214 l 586 1214 m 369 1214 l 369 1126 l 277 1126 l 277 1214 l 369 1214 z "},"А":{"ha":1012,"x_min":24,"x_max":988,"o":"m 100 0 l 24 0 l 463 970 l 547 970 l 988 0 l 903 0 l 760 326 l 325 326 l 346 387 l 733 387 l 500 914 l 100 0 z "},"Б":{"ha":882,"x_min":109,"x_max":798,"o":"m 787 970 l 787 909 l 180 909 l 180 63 l 511 63 q 726 273 726 63 q 474 495 726 495 l 347 495 l 347 556 l 480 556 q 798 280 798 556 q 522 0 798 0 l 109 0 l 109 970 l 787 970 z "},"В":{"ha":902,"x_min":109,"x_max":811,"o":"m 109 0 l 109 970 l 522 970 q 799 744 799 970 q 598 507 799 578 q 811 280 811 471 q 508 0 811 0 l 109 0 m 500 61 q 735 278 735 61 q 441 470 735 470 l 387 470 l 387 518 q 726 739 726 549 q 517 909 726 909 l 180 909 l 180 61 l 500 61 z "},"Г":{"ha":687,"x_min":109,"x_max":687,"o":"m 109 0 l 109 970 l 687 970 l 687 909 l 180 909 l 180 0 l 109 0 z "},"Д":{"ha":1098,"x_min":0,"x_max":1047,"o":"m 283 61 l 850 61 l 850 909 l 477 909 q 283 61 477 231 m 0 -258 l 0 61 l 125 61 q 406 909 406 61 l 406 970 l 922 970 l 922 61 l 1047 61 l 1047 -258 l 976 -258 l 976 0 l 71 0 l 71 -258 l 0 -258 z "},"Е":{"ha":846,"x_min":109,"x_max":755,"o":"m 745 970 l 745 909 l 180 909 l 180 522 l 722 522 l 722 461 l 180 461 l 180 61 l 755 61 l 755 0 l 109 0 l 109 970 l 745 970 z "},"Ж":{"ha":1383,"x_min":17,"x_max":1366,"o":"m 1238 0 q 948 428 1008 366 q 808 490 888 490 l 808 540 q 1055 755 944 540 q 1293 970 1166 970 l 1366 970 l 1366 909 l 1312 909 q 1114 725 1205 909 q 925 514 1023 541 q 1037 438 976 505 q 1335 0 1098 370 l 1238 0 m 727 970 l 727 0 l 656 0 l 656 970 l 727 970 m 47 0 q 346 438 285 370 q 458 514 407 505 q 269 725 359 541 q 71 909 178 909 l 17 909 l 17 970 l 90 970 q 328 755 217 970 q 574 540 439 540 l 574 490 q 435 428 494 490 q 145 0 375 366 l 47 0 z "},"З":{"ha":756,"x_min":68,"x_max":688,"o":"m 68 936 q 339 977 203 977 q 688 712 688 977 q 527 492 688 538 q 688 271 688 448 q 339 -7 688 -7 q 68 34 203 -7 l 68 102 q 339 54 203 54 q 617 271 617 54 q 392 461 617 461 l 170 461 l 170 522 l 390 522 q 617 712 617 522 q 339 916 617 916 q 68 868 203 916 l 68 936 z "},"И":{"ha":973,"x_min":109,"x_max":865,"o":"m 793 0 l 793 863 l 186 0 l 109 0 l 109 970 l 180 970 l 180 107 l 787 970 l 865 970 l 865 0 l 793 0 z "},"Й":{"ha":973,"x_min":109,"x_max":865,"o":"m 319 1210 l 376 1210 q 492 1088 376 1088 q 607 1210 607 1088 l 665 1210 q 492 1034 665 1034 q 319 1210 319 1034 m 793 0 l 793 863 l 186 0 l 109 0 l 109 970 l 180 970 l 180 107 l 787 970 l 865 970 l 865 0 l 793 0 z "},"К":{"ha":836,"x_min":109,"x_max":819,"o":"m 690 0 q 401 428 460 366 q 261 490 341 490 l 261 540 q 508 755 397 540 q 746 970 618 970 l 819 970 l 819 909 l 765 909 q 560 725 658 909 q 378 514 463 541 q 490 438 429 505 q 788 0 551 370 l 690 0 m 180 970 l 180 0 l 109 0 l 109 970 l 180 970 z "},"Л":{"ha":972,"x_min":0,"x_max":864,"o":"m 0 61 q 281 543 281 61 l 281 970 l 864 970 l 864 0 l 793 0 l 793 909 l 352 909 l 352 543 q 0 0 352 0 l 0 61 z "},"М":{"ha":1200,"x_min":109,"x_max":1092,"o":"m 109 0 l 109 970 l 180 970 l 617 83 l 1027 970 l 1092 970 l 1092 0 l 1027 0 l 1027 839 l 642 0 l 584 0 l 173 846 l 173 0 l 109 0 z "},"Н":{"ha":966,"x_min":109,"x_max":858,"o":"m 109 0 l 109 970 l 180 970 l 180 529 l 787 529 l 787 970 l 858 970 l 858 0 l 787 0 l 787 468 l 180 468 l 180 0 l 109 0 z "},"О":{"ha":1116,"x_min":75,"x_max":1041,"o":"m 153 488 q 562 54 153 54 q 963 488 963 54 q 562 916 963 916 q 153 488 153 916 m 75 484 q 562 977 75 977 q 1041 484 1041 977 q 562 -7 1041 -7 q 75 484 75 -7 z "},"П":{"ha":966,"x_min":109,"x_max":858,"o":"m 109 0 l 109 970 l 858 970 l 858 0 l 787 0 l 787 909 l 180 909 l 180 0 l 109 0 z "},"Р":{"ha":857,"x_min":109,"x_max":799,"o":"m 109 0 l 109 970 l 515 970 q 799 703 799 970 q 345 369 799 441 l 333 434 q 720 698 720 488 q 504 907 720 907 l 180 907 l 180 0 l 109 0 z "},"С":{"ha":953,"x_min":75,"x_max":854,"o":"m 854 34 q 583 -7 722 -7 q 75 498 75 -7 q 583 977 75 977 q 854 936 722 977 l 854 875 q 597 916 722 916 q 146 498 146 916 q 597 54 146 54 q 854 95 722 54 l 854 34 z "},"Т":{"ha":743,"x_min":7,"x_max":736,"o":"m 736 970 l 736 909 l 404 909 l 404 0 l 332 0 l 332 909 l 7 909 l 7 970 l 736 970 z "},"У":{"ha":886,"x_min":34,"x_max":869,"o":"m 869 970 l 535 182 q 271 0 458 0 q 111 47 184 0 l 111 109 q 269 61 183 61 q 457 184 414 61 l 34 970 l 112 970 l 496 251 l 793 970 l 869 970 z "},"Ф":{"ha":1115,"x_min":68,"x_max":1047,"o":"m 522 77 q 68 490 68 102 q 522 893 68 868 l 522 970 l 593 970 l 593 894 q 1047 490 1047 871 q 593 76 1047 98 l 593 0 l 522 0 l 522 77 m 522 138 l 522 831 q 145 488 145 807 q 522 138 145 163 m 593 832 l 593 138 q 970 488 970 161 q 593 832 970 810 z "},"Х":{"ha":882,"x_min":17,"x_max":865,"o":"m 399 485 l 17 970 l 102 970 l 441 538 l 780 970 l 865 970 l 484 485 l 865 0 l 780 0 l 441 431 l 102 0 l 17 0 l 399 485 z "},"Ц":{"ha":1002,"x_min":109,"x_max":934,"o":"m 109 0 l 109 970 l 180 970 l 180 61 l 737 61 l 737 970 l 808 970 l 808 61 l 934 61 l 934 -258 l 863 -258 l 863 0 l 109 0 z "},"Ч":{"ha":894,"x_min":85,"x_max":785,"o":"m 785 970 l 785 0 l 714 0 l 714 430 q 423 353 581 353 q 85 679 85 353 l 85 970 l 156 970 l 156 677 q 427 416 156 416 q 714 507 595 416 l 714 970 l 785 970 z "},"Ш":{"ha":1204,"x_min":109,"x_max":1095,"o":"m 109 0 l 109 970 l 180 970 l 180 61 l 566 61 l 566 970 l 637 970 l 637 61 l 1024 61 l 1024 970 l 1095 970 l 1095 0 l 109 0 z "},"Щ":{"ha":1289,"x_min":109,"x_max":1221,"o":"m 109 0 l 109 970 l 180 970 l 180 61 l 566 61 l 566 970 l 637 970 l 637 61 l 1024 61 l 1024 970 l 1095 970 l 1095 61 l 1221 61 l 1221 -258 l 1149 -258 l 1149 0 l 109 0 z "},"Ъ":{"ha":1160,"x_min":0,"x_max":1092,"o":"m 466 970 l 466 63 l 804 63 q 1013 273 1013 63 q 767 495 1013 495 l 578 495 l 578 556 l 767 556 q 1092 280 1092 556 q 808 0 1092 0 l 395 0 l 395 909 l 0 909 l 0 970 l 466 970 z "},"Ы":{"ha":1116,"x_min":109,"x_max":1007,"o":"m 180 970 l 180 63 l 517 63 q 733 273 733 63 q 481 495 733 495 l 292 495 l 292 556 l 481 556 q 806 280 806 556 q 522 0 806 0 l 109 0 l 109 970 l 180 970 m 936 0 l 936 970 l 1007 970 l 1007 0 l 936 0 z "},"Ь":{"ha":873,"x_min":109,"x_max":806,"o":"m 180 970 l 180 63 l 517 63 q 733 273 733 63 q 481 495 733 495 l 292 495 l 292 556 l 480 556 q 806 280 806 556 q 522 0 806 0 l 109 0 l 109 970 l 180 970 z "},"Э":{"ha":932,"x_min":85,"x_max":865,"o":"m 85 102 q 356 54 210 54 q 791 461 771 54 l 134 461 l 134 522 l 792 522 q 356 916 777 916 q 85 868 210 916 l 85 936 q 356 977 210 977 q 865 498 865 977 q 356 -7 865 -7 q 85 34 210 -7 l 85 102 z "},"Ю":{"ha":1364,"x_min":109,"x_max":1297,"o":"m 109 0 l 109 970 l 179 970 l 179 522 l 515 522 q 905 977 531 977 q 1297 490 1297 977 q 905 -7 1297 -7 q 514 461 524 -7 l 179 461 l 179 0 l 109 0 m 905 54 q 1219 488 1219 54 q 905 916 1219 916 q 585 488 585 916 q 905 54 585 54 z "},"Я":{"ha":831,"x_min":17,"x_max":722,"o":"m 651 0 l 651 907 l 334 907 q 138 732 138 907 q 437 498 138 542 l 437 450 l 115 0 l 17 0 l 345 452 q 59 737 59 536 q 322 970 59 970 l 722 970 l 722 0 l 651 0 z "},"а":{"ha":743,"x_min":68,"x_max":634,"o":"m 68 201 q 350 414 68 414 q 563 400 450 414 l 563 488 q 357 651 563 651 q 132 617 248 651 l 132 678 q 357 712 248 712 q 634 491 634 712 l 634 0 l 591 0 l 574 71 q 315 0 441 0 q 68 201 68 0 m 350 353 q 139 203 139 353 q 315 61 139 61 q 563 130 446 61 l 563 339 q 350 353 450 353 z "},"б":{"ha":812,"x_min":85,"x_max":736,"o":"m 736 353 q 412 -7 736 -7 q 85 353 85 -7 l 85 573 q 447 970 85 970 q 713 1044 597 970 l 713 974 q 445 909 610 909 q 159 580 159 909 q 419 712 241 712 q 736 369 736 712 l 736 353 m 412 54 q 665 353 665 54 q 419 647 665 647 q 159 353 159 647 q 412 54 159 54 z "},"в":{"ha":736,"x_min":102,"x_max":669,"o":"m 446 61 q 593 197 593 61 q 421 332 593 332 l 313 332 l 313 387 q 584 543 584 397 q 463 651 584 651 l 173 651 l 173 61 l 446 61 m 102 0 l 102 712 l 468 712 q 656 541 656 712 q 524 370 656 423 q 669 199 669 334 q 454 0 669 0 l 102 0 z "},"г":{"ha":521,"x_min":102,"x_max":521,"o":"m 102 0 l 102 712 l 521 712 l 521 651 l 173 651 l 173 0 l 102 0 z "},"д":{"ha":914,"x_min":0,"x_max":863,"o":"m 254 61 l 667 61 l 667 651 l 361 651 q 254 61 361 231 m 0 -258 l 0 61 l 125 61 q 290 651 290 61 l 290 712 l 738 712 l 738 61 l 863 61 l 863 -258 l 792 -258 l 792 0 l 71 0 l 71 -258 l 0 -258 z "},"е":{"ha":762,"x_min":75,"x_max":688,"o":"m 395 712 q 688 389 688 712 q 686 340 688 366 l 146 340 q 441 61 146 61 q 657 95 563 61 l 657 34 q 441 0 563 0 q 75 364 75 0 q 395 712 75 712 m 146 404 l 619 404 q 395 652 615 652 q 146 404 158 652 z "},"ж":{"ha":1065,"x_min":17,"x_max":1048,"o":"m 20 0 l 133 179 q 318 378 245 357 q 192 528 233 405 q 71 651 151 651 l 17 651 l 17 712 l 69 712 q 253 555 203 712 q 432 397 303 397 l 432 355 q 211 167 311 355 l 111 0 l 20 0 m 567 712 l 567 0 l 496 0 l 496 712 l 567 712 m 954 0 l 854 167 q 633 355 753 355 l 633 397 q 811 555 762 397 q 996 712 861 712 l 1048 712 l 1048 651 l 994 651 q 873 528 914 651 q 747 378 831 405 q 932 179 820 357 l 1044 0 l 954 0 z "},"з":{"ha":654,"x_min":68,"x_max":587,"o":"m 68 678 q 305 719 203 719 q 587 521 587 719 q 493 363 587 416 q 587 210 587 312 q 305 -7 587 -7 q 68 34 203 -7 l 68 102 q 305 54 203 54 q 515 210 515 54 q 358 332 515 332 l 136 332 l 136 393 l 356 393 q 515 521 515 393 q 305 658 515 658 q 68 610 203 658 l 68 678 z "},"и":{"ha":777,"x_min":102,"x_max":675,"o":"m 610 0 l 610 618 l 173 0 l 102 0 l 102 712 l 166 712 l 166 94 l 604 712 l 675 712 l 675 0 l 610 0 z "},"й":{"ha":777,"x_min":102,"x_max":675,"o":"m 610 0 l 610 618 l 173 0 l 102 0 l 102 712 l 166 712 l 166 94 l 604 712 l 675 712 l 675 0 l 610 0 m 216 970 l 273 970 q 389 848 273 848 q 504 970 504 848 l 562 970 q 389 793 562 793 q 216 970 216 793 z "},"к":{"ha":671,"x_min":102,"x_max":654,"o":"m 173 712 l 173 0 l 102 0 l 102 712 l 173 712 m 559 0 l 460 167 q 239 355 359 355 l 239 397 q 417 555 368 397 q 602 712 467 712 l 654 712 l 654 651 l 600 651 q 479 528 520 651 q 353 378 437 405 q 538 179 426 357 l 650 0 l 559 0 z "},"л":{"ha":751,"x_min":0,"x_max":649,"o":"m 0 61 q 161 285 161 61 l 161 712 l 649 712 l 649 0 l 578 0 l 578 651 l 232 651 l 232 285 q 0 0 232 0 l 0 61 z "},"м":{"ha":963,"x_min":102,"x_max":861,"o":"m 102 0 l 102 712 l 173 712 l 486 71 l 790 712 l 861 712 l 861 0 l 797 0 l 797 585 l 513 0 l 455 0 l 166 585 l 166 0 l 102 0 z "},"н":{"ha":777,"x_min":102,"x_max":675,"o":"m 102 0 l 102 712 l 173 712 l 173 393 l 604 393 l 604 712 l 675 712 l 675 0 l 604 0 l 604 332 l 173 332 l 173 0 l 102 0 z "},"о":{"ha":814,"x_min":68,"x_max":746,"o":"m 68 356 q 407 719 68 719 q 746 356 746 719 q 407 -7 746 -7 q 68 356 69 -7 m 139 359 q 407 54 139 54 q 675 359 675 54 q 407 658 675 658 q 139 359 139 658 z "},"п":{"ha":777,"x_min":102,"x_max":675,"o":"m 102 0 l 102 712 l 675 712 l 675 0 l 604 0 l 604 651 l 173 651 l 173 0 l 102 0 z "},"р":{"ha":805,"x_min":102,"x_max":737,"o":"m 173 104 q 392 68 301 68 q 668 375 668 68 q 393 648 668 648 q 173 632 298 648 l 173 104 m 102 683 q 395 712 243 712 q 737 374 737 712 q 393 0 737 0 q 173 34 307 0 l 173 -258 l 102 -258 l 102 683 z "},"с":{"ha":682,"x_min":75,"x_max":624,"o":"m 624 20 q 434 0 536 0 q 75 370 75 0 q 434 712 75 712 q 624 692 536 712 l 624 631 q 441 651 529 651 q 153 370 153 651 q 441 61 153 61 q 624 81 529 61 l 624 20 z "},"т":{"ha":573,"x_min":0,"x_max":573,"o":"m 573 712 l 573 651 l 322 651 l 322 0 l 251 0 l 251 651 l 0 651 l 0 712 l 573 712 z "},"у":{"ha":720,"x_min":17,"x_max":703,"o":"m 17 712 l 99 712 l 363 69 l 624 712 l 703 712 l 393 -21 q 157 -263 315 -215 l 136 -206 q 325 -11 260 -161 l 17 712 z "},"ф":{"ha":1115,"x_min":68,"x_max":1047,"o":"m 522 -5 q 68 361 68 18 q 522 717 68 694 l 522 970 l 593 970 l 593 718 q 1047 361 1047 696 q 593 -5 1047 16 l 593 -258 l 522 -258 l 522 -5 m 522 57 l 522 655 q 145 359 145 633 q 522 57 145 80 m 593 656 l 593 56 q 970 359 970 77 q 593 656 970 635 z "},"х":{"ha":671,"x_min":17,"x_max":654,"o":"m 294 356 l 17 712 l 102 712 l 336 411 l 570 712 l 654 712 l 378 356 l 654 0 l 570 0 l 336 301 l 102 0 l 17 0 l 294 356 z "},"ц":{"ha":869,"x_min":102,"x_max":818,"o":"m 102 0 l 102 712 l 173 712 l 173 61 l 621 61 l 621 712 l 692 712 l 692 61 l 818 61 l 818 -258 l 747 -258 l 747 0 l 102 0 z "},"ч":{"ha":772,"x_min":85,"x_max":670,"o":"m 670 712 l 670 0 l 599 0 l 599 281 q 362 203 500 203 q 85 482 85 203 l 85 712 l 156 712 l 156 480 q 366 267 156 267 q 599 357 514 267 l 599 712 l 670 712 z "},"ш":{"ha":1055,"x_min":102,"x_max":953,"o":"m 102 0 l 102 712 l 173 712 l 173 61 l 492 61 l 492 712 l 563 712 l 563 61 l 882 61 l 882 712 l 953 712 l 953 0 l 102 0 z "},"щ":{"ha":1129,"x_min":102,"x_max":1078,"o":"m 102 0 l 102 712 l 173 712 l 173 61 l 492 61 l 492 712 l 563 712 l 563 61 l 882 61 l 882 712 l 953 712 l 953 61 l 1078 61 l 1078 -258 l 1007 -258 l 1007 0 l 102 0 z "},"ъ":{"ha":917,"x_min":0,"x_max":849,"o":"m 332 712 l 332 63 l 595 63 q 777 218 777 63 q 606 352 777 352 l 424 352 l 424 413 l 606 413 q 849 212 849 413 q 600 0 849 0 l 260 0 l 260 651 l 0 651 l 0 712 l 332 712 z "},"ы":{"ha":983,"x_min":102,"x_max":882,"o":"m 797 0 l 797 712 l 882 712 l 882 0 l 797 0 m 173 712 l 173 63 l 450 63 q 618 218 618 63 q 447 352 618 352 l 265 352 l 265 413 l 446 413 q 690 212 690 413 q 454 0 690 0 l 102 0 l 102 712 l 173 712 z "},"ь":{"ha":792,"x_min":102,"x_max":690,"o":"m 173 712 l 173 63 l 450 63 q 618 218 618 63 q 447 352 618 352 l 265 352 l 265 413 l 446 413 q 690 212 690 413 q 454 0 690 0 l 102 0 l 102 712 l 173 712 z "},"э":{"ha":712,"x_min":68,"x_max":644,"o":"m 68 81 q 258 61 156 61 q 570 333 555 61 l 111 333 l 111 394 l 570 394 q 251 651 559 651 q 68 631 156 651 l 68 692 q 258 712 156 712 q 644 370 644 712 q 258 0 644 0 q 68 20 156 0 l 68 81 z "},"ю":{"ha":1154,"x_min":102,"x_max":1086,"o":"m 777 54 q 1008 359 1008 54 q 777 658 1008 658 q 537 359 537 658 q 777 54 537 54 m 102 0 l 102 712 l 172 712 l 172 393 l 461 393 q 777 719 479 719 q 1086 355 1086 719 q 777 -7 1086 -7 q 460 332 472 -7 l 172 332 l 172 0 l 102 0 z "},"я":{"ha":722,"x_min":17,"x_max":621,"o":"m 549 0 l 549 649 l 293 649 q 152 528 152 649 q 355 369 152 406 l 355 307 l 111 0 l 17 0 l 279 323 q 79 527 79 370 q 295 712 79 712 l 621 712 l 621 0 l 549 0 z "},"ё":{"ha":762,"x_min":75,"x_max":688,"o":"m 395 712 q 688 389 688 712 q 686 340 688 366 l 146 340 q 441 61 146 61 q 657 95 563 61 l 657 34 q 441 0 563 0 q 75 364 75 0 q 395 712 75 712 m 146 404 l 619 404 q 395 652 615 652 q 146 404 158 652 m 556 956 l 556 868 l 465 868 l 465 956 l 556 956 m 339 956 l 339 868 l 248 868 l 248 956 l 339 956 z "},";":{"ha":370,"x_min":75,"x_max":261,"o":"m 248 125 l 146 -170 l 75 -170 l 176 125 l 248 125 m 261 712 l 261 627 l 170 627 l 170 712 l 261 712 z "},"΄":{"ha":355,"x_min":68,"x_max":287,"o":"m 179 970 l 287 970 l 125 808 l 68 808 l 179 970 z "},"΅":{"ha":580,"x_min":68,"x_max":512,"o":"m 512 956 l 512 868 l 420 868 l 420 956 l 512 956 m 159 956 l 159 868 l 68 868 l 68 956 l 159 956 m 281 970 l 389 970 l 227 808 l 170 808 l 281 970 z "},"Ά":{"ha":1012,"x_min":24,"x_max":988,"o":"m 179 970 l 287 970 l 125 808 l 68 808 l 179 970 z "},"·":{"ha":241,"x_min":75,"x_max":167,"o":"m 167 712 l 167 627 l 75 627 l 75 712 l 167 712 z "},"Έ":{"ha":964,"x_min":-34,"x_max":872,"o":"m 77 970 l 185 970 l 23 808 l -34 808 l 77 970 m 863 970 l 863 909 l 297 909 l 297 522 l 840 522 l 840 461 l 297 461 l 297 61 l 872 61 l 872 0 l 226 0 l 226 970 l 863 970 z "},"Ή":{"ha":1138,"x_min":-34,"x_max":1029,"o":"m 77 970 l 185 970 l 23 808 l -34 808 l 77 970 m 226 0 l 226 970 l 297 970 l 297 522 l 958 522 l 958 970 l 1029 970 l 1029 0 l 958 0 l 958 461 l 297 461 l 297 0 l 226 0 z "},"Ί":{"ha":473,"x_min":-34,"x_max":331,"o":"m 77 970 l 185 970 l 23 808 l -34 808 l 77 970 m 331 970 l 331 0 l 260 0 l 260 970 l 331 970 z "},"Ό":{"ha":1131,"x_min":-34,"x_max":1057,"o":"m 77 970 l 185 970 l 23 808 l -34 808 l 77 970 m 168 488 q 577 54 168 54 q 979 488 979 54 q 577 916 979 916 q 168 488 168 916 m 90 484 q 577 977 90 977 q 1057 484 1057 977 q 577 -7 1057 -7 q 90 484 90 -7 z "},"Ύ":{"ha":1033,"x_min":-34,"x_max":1009,"o":"m 77 970 l 185 970 l 23 808 l -34 808 l 77 970 m 209 970 l 294 970 l 608 407 l 931 970 l 1009 970 l 646 339 l 646 0 l 574 0 l 574 339 l 209 970 z "},"Ώ":{"ha":1107,"x_min":-34,"x_max":1026,"o":"m 77 970 l 185 970 l 23 808 l -34 808 l 77 970 m 107 0 l 107 61 l 348 61 q 97 556 97 271 q 562 983 97 983 q 1026 556 1026 983 q 775 61 1026 271 l 1016 61 l 1016 0 l 677 0 l 677 61 q 955 556 955 285 q 562 922 955 922 q 168 556 168 922 q 446 61 168 285 l 446 0 l 107 0 z "},"ΐ":{"ha":315,"x_min":-64,"x_max":380,"o":"m 193 712 l 193 0 l 122 0 l 122 712 l 193 712 m 380 956 l 380 868 l 288 868 l 288 956 l 380 956 m 27 956 l 27 868 l -64 868 l -64 956 l 27 956 m 149 970 l 256 970 l 94 808 l 37 808 l 149 970 z "},"Α":{"ha":1012,"x_min":24,"x_max":988,"o":"m 100 0 l 24 0 l 463 970 l 547 970 l 988 0 l 903 0 l 760 326 l 325 326 l 346 387 l 733 387 l 500 914 l 100 0 z "},"Β":{"ha":902,"x_min":109,"x_max":811,"o":"m 109 0 l 109 970 l 522 970 q 799 744 799 970 q 598 507 799 578 q 811 280 811 471 q 508 0 811 0 l 109 0 m 500 61 q 735 278 735 61 q 441 470 735 470 l 387 470 l 387 518 q 726 739 726 549 q 517 909 726 909 l 180 909 l 180 61 l 500 61 z "},"Γ":{"ha":687,"x_min":109,"x_max":687,"o":"m 109 0 l 109 970 l 687 970 l 687 909 l 180 909 l 180 0 l 109 0 z "},"Ε":{"ha":846,"x_min":109,"x_max":755,"o":"m 745 970 l 745 909 l 180 909 l 180 522 l 722 522 l 722 461 l 180 461 l 180 61 l 755 61 l 755 0 l 109 0 l 109 970 l 745 970 z "},"Ζ":{"ha":861,"x_min":92,"x_max":770,"o":"m 770 970 l 770 909 l 182 61 l 756 61 l 756 0 l 92 0 l 92 54 l 698 909 l 105 909 l 105 970 l 770 970 z "},"Η":{"ha":1021,"x_min":109,"x_max":912,"o":"m 109 0 l 109 970 l 180 970 l 180 522 l 841 522 l 841 970 l 912 970 l 912 0 l 841 0 l 841 461 l 180 461 l 180 0 l 109 0 z "},"Θ":{"ha":1116,"x_min":75,"x_max":1041,"o":"m 328 531 l 785 531 l 785 463 l 328 463 l 328 531 m 153 488 q 562 54 153 54 q 963 488 963 54 q 562 916 963 916 q 153 488 153 916 m 75 484 q 562 977 75 977 q 1041 484 1041 977 q 562 -7 1041 -7 q 75 484 75 -7 z "},"Ι":{"ha":356,"x_min":142,"x_max":214,"o":"m 214 970 l 214 0 l 142 0 l 142 970 l 214 970 z "},"Κ":{"ha":882,"x_min":109,"x_max":861,"o":"m 180 970 l 180 0 l 109 0 l 109 970 l 180 970 m 845 970 l 383 511 l 861 0 l 755 0 l 312 487 l 312 529 l 747 970 l 845 970 z "},"Λ":{"ha":1012,"x_min":24,"x_max":988,"o":"m 100 0 l 24 0 l 463 970 l 547 970 l 988 0 l 903 0 l 500 914 l 100 0 z "},"Μ":{"ha":1200,"x_min":109,"x_max":1092,"o":"m 109 0 l 109 970 l 180 970 l 617 83 l 1027 970 l 1092 970 l 1092 0 l 1027 0 l 1027 839 l 642 0 l 584 0 l 173 846 l 173 0 l 109 0 z "},"Ν":{"ha":1021,"x_min":109,"x_max":912,"o":"m 109 0 l 109 970 l 200 970 l 848 121 l 848 970 l 912 970 l 912 0 l 854 0 l 173 890 l 173 0 l 109 0 z "},"Ξ":{"ha":811,"x_min":68,"x_max":743,"o":"m 68 68 l 743 68 l 743 0 l 68 0 l 68 68 m 68 970 l 743 970 l 743 902 l 68 902 l 68 970 m 109 531 l 703 531 l 703 463 l 109 463 l 109 531 z "},"Ο":{"ha":1116,"x_min":75,"x_max":1041,"o":"m 153 488 q 562 54 153 54 q 963 488 963 54 q 562 916 963 916 q 153 488 153 916 m 75 484 q 562 977 75 977 q 1041 484 1041 977 q 562 -7 1041 -7 q 75 484 75 -7 z "},"Π":{"ha":966,"x_min":109,"x_max":858,"o":"m 109 0 l 109 970 l 858 970 l 858 0 l 787 0 l 787 909 l 180 909 l 180 0 l 109 0 z "},"Ρ":{"ha":857,"x_min":109,"x_max":799,"o":"m 109 0 l 109 970 l 515 970 q 799 703 799 970 q 345 369 799 441 l 333 434 q 720 698 720 488 q 504 907 720 907 l 180 907 l 180 0 l 109 0 z "},"Σ":{"ha":800,"x_min":68,"x_max":732,"o":"m 68 970 l 732 970 l 732 909 l 156 909 l 488 509 l 156 61 l 732 61 l 732 0 l 68 0 l 68 61 l 397 509 l 68 909 l 68 970 z "},"Τ":{"ha":743,"x_min":7,"x_max":736,"o":"m 736 970 l 736 909 l 404 909 l 404 0 l 332 0 l 332 909 l 7 909 l 7 970 l 736 970 z "},"Υ":{"ha":848,"x_min":24,"x_max":824,"o":"m 24 970 l 109 970 l 422 407 l 746 970 l 824 970 l 460 339 l 460 0 l 389 0 l 389 339 l 24 970 z "},"Φ":{"ha":1115,"x_min":68,"x_max":1047,"o":"m 522 77 q 68 490 68 102 q 522 893 68 868 l 522 970 l 593 970 l 593 894 q 1047 490 1047 871 q 593 76 1047 98 l 593 0 l 522 0 l 522 77 m 522 138 l 522 831 q 145 488 145 807 q 522 138 145 163 m 593 832 l 593 138 q 970 488 970 161 q 593 832 970 810 z "},"Χ":{"ha":895,"x_min":24,"x_max":871,"o":"m 406 485 l 24 970 l 109 970 l 448 538 l 787 970 l 871 970 l 490 485 l 871 0 l 787 0 l 448 431 l 109 0 l 24 0 l 406 485 z "},"Ψ":{"ha":1119,"x_min":109,"x_max":1010,"o":"m 524 367 l 524 970 l 595 970 l 595 367 q 939 670 939 380 l 939 970 l 1010 970 l 1010 670 q 595 306 1010 319 l 595 0 l 524 0 l 524 306 q 109 670 109 319 l 109 970 l 180 970 l 180 670 q 524 367 180 380 z "},"Ϊ":{"ha":356,"x_min":24,"x_max":332,"o":"m 214 970 l 214 0 l 142 0 l 142 970 l 214 970 m 332 1214 l 332 1126 l 241 1126 l 241 1214 l 332 1214 m 115 1214 l 115 1126 l 24 1126 l 24 1214 l 115 1214 z "},"Ϋ":{"ha":848,"x_min":24,"x_max":824,"o":"m 24 970 l 109 970 l 422 407 l 746 970 l 824 970 l 460 339 l 460 0 l 389 0 l 389 339 l 24 970 m 578 1214 l 578 1126 l 487 1126 l 487 1214 l 578 1214 m 361 1214 l 361 1126 l 270 1126 l 270 1214 l 361 1214 z "},"ά":{"ha":935,"x_min":68,"x_max":867,"o":"m 68 356 q 366 712 68 712 q 690 424 591 712 l 795 712 l 867 712 l 726 354 l 858 0 l 783 0 l 688 275 q 366 0 567 0 q 68 356 69 0 m 139 359 q 366 61 139 61 q 654 359 532 61 q 366 651 539 651 q 139 359 139 651 m 492 970 l 600 970 l 438 808 l 381 808 l 492 970 z "},"έ":{"ha":627,"x_min":68,"x_max":559,"o":"m 559 617 q 342 658 458 658 q 146 528 146 658 q 366 400 146 400 l 498 400 l 498 339 l 364 339 q 139 197 139 339 q 342 54 139 54 q 559 95 458 54 l 559 27 q 342 -7 458 -7 q 68 197 68 -7 q 216 370 68 332 q 75 528 75 410 q 349 719 75 719 q 559 685 458 719 l 559 617 m 352 970 l 460 970 l 298 808 l 241 808 l 352 970 z "},"ή":{"ha":804,"x_min":109,"x_max":695,"o":"m 109 0 l 109 712 l 159 712 l 168 621 q 435 712 304 712 q 695 488 695 712 l 695 -258 l 624 -258 l 624 490 q 432 648 624 648 q 180 558 304 648 l 180 0 l 109 0 m 440 970 l 548 970 l 386 808 l 329 808 l 440 970 z "},"ί":{"ha":315,"x_min":85,"x_max":304,"o":"m 193 712 l 193 0 l 122 0 l 122 712 l 193 712 m 196 970 l 304 970 l 142 808 l 85 808 l 196 970 z "},"ΰ":{"ha":821,"x_min":102,"x_max":719,"o":"m 102 297 l 102 712 l 173 712 l 173 297 q 410 54 173 54 q 648 297 648 54 l 648 712 l 719 712 l 719 297 q 410 -7 719 -7 q 102 297 102 -7 m 633 956 l 633 868 l 541 868 l 541 956 l 633 956 m 280 956 l 280 868 l 189 868 l 189 956 l 280 956 m 401 970 l 509 970 l 347 808 l 290 808 l 401 970 z "},"α":{"ha":935,"x_min":68,"x_max":867,"o":"m 68 356 q 366 712 68 712 q 690 424 591 712 l 795 712 l 867 712 l 726 354 l 858 0 l 783 0 l 688 275 q 366 0 567 0 q 68 356 69 0 m 139 359 q 366 61 139 61 q 654 359 532 61 q 366 651 539 651 q 139 359 139 651 z "},"β":{"ha":811,"x_min":102,"x_max":760,"o":"m 102 -245 l 102 591 q 437 970 102 970 q 715 742 715 970 q 545 522 715 564 q 760 258 760 496 q 479 -1 760 -1 q 281 39 387 -1 l 281 100 q 481 60 388 60 q 689 258 689 60 q 383 488 689 488 l 383 528 q 653 742 653 564 q 432 909 653 909 q 173 589 173 909 l 173 -245 l 102 -245 z "},"γ":{"ha":732,"x_min":24,"x_max":702,"o":"m 24 712 l 102 712 l 361 83 l 624 712 l 702 712 l 393 0 l 393 -258 l 321 -258 l 321 0 l 24 712 z "},"δ":{"ha":814,"x_min":68,"x_max":746,"o":"m 746 366 q 402 -7 746 -7 q 68 359 68 -7 q 402 705 68 705 q 526 685 460 705 q 145 916 349 829 l 145 970 l 677 970 l 677 916 l 273 916 q 746 366 737 702 m 675 363 q 402 651 675 651 q 136 359 136 651 q 403 54 136 54 q 675 363 675 54 z "},"ε":{"ha":627,"x_min":68,"x_max":559,"o":"m 559 617 q 342 658 458 658 q 146 528 146 658 q 366 400 146 400 l 498 400 l 498 339 l 364 339 q 139 197 139 339 q 342 54 139 54 q 559 95 458 54 l 559 27 q 342 -7 458 -7 q 68 197 68 -7 q 216 370 68 332 q 75 528 75 410 q 349 719 75 719 q 559 685 458 719 l 559 617 z "},"ζ":{"ha":680,"x_min":68,"x_max":646,"o":"m 205 970 l 646 970 l 646 909 q 136 286 136 574 q 338 61 136 61 l 474 61 q 640 -50 640 61 q 423 -271 640 -189 l 396 -218 q 576 -51 576 -151 q 477 0 576 0 l 341 0 q 68 283 68 0 q 543 909 68 587 l 205 909 l 205 970 z "},"η":{"ha":804,"x_min":109,"x_max":695,"o":"m 109 0 l 109 712 l 159 712 l 168 621 q 435 712 304 712 q 695 488 695 712 l 695 -258 l 624 -258 l 624 490 q 432 648 624 648 q 180 558 304 648 l 180 0 l 109 0 z "},"θ":{"ha":844,"x_min":81,"x_max":763,"o":"m 159 475 q 426 54 163 54 q 685 475 681 54 l 159 475 m 684 536 q 426 916 670 916 q 160 536 175 916 l 684 536 m 81 484 q 426 977 81 977 q 763 484 763 977 q 426 -7 763 -7 q 81 484 81 -7 z "},"ι":{"ha":315,"x_min":122,"x_max":193,"o":"m 193 712 l 193 0 l 122 0 l 122 712 l 193 712 z "},"κ":{"ha":746,"x_min":102,"x_max":722,"o":"m 706 712 l 353 382 l 722 0 l 609 0 l 275 365 l 275 400 l 602 712 l 706 712 m 180 712 l 180 0 l 102 0 l 102 712 l 180 712 z "},"λ":{"ha":740,"x_min":27,"x_max":713,"o":"m 334 713 q 146 918 270 873 l 168 975 q 404 733 325 927 l 713 0 l 634 0 l 371 641 l 109 0 l 27 0 l 334 713 z "},"ν":{"ha":699,"x_min":7,"x_max":692,"o":"m 7 712 l 88 712 l 349 62 l 610 712 l 692 712 l 389 0 l 306 0 l 7 712 z "},"ξ":{"ha":690,"x_min":85,"x_max":656,"o":"m 421 970 l 587 970 l 587 909 l 422 909 q 217 757 217 909 q 422 605 217 605 l 580 605 l 580 544 l 429 544 q 153 286 153 544 q 355 61 153 61 l 505 61 q 656 -56 656 61 q 440 -271 656 -189 l 413 -225 q 593 -58 593 -144 q 508 0 593 0 l 358 0 q 85 283 85 0 q 267 575 85 508 q 146 761 146 612 q 421 970 146 970 z "},"ο":{"ha":814,"x_min":68,"x_max":746,"o":"m 139 359 q 407 61 139 61 q 675 359 675 61 q 407 651 675 651 q 139 359 139 651 m 68 356 q 407 712 68 712 q 746 356 746 712 q 407 1 746 1 q 68 356 69 1 z "},"ρ":{"ha":822,"x_min":92,"x_max":754,"o":"m 163 111 q 395 68 291 68 q 685 373 685 68 q 417 648 685 648 q 163 373 163 648 l 163 111 m 92 373 q 418 712 92 712 q 754 373 754 712 q 396 0 754 0 q 163 41 297 0 l 163 -258 l 92 -258 l 92 373 z "},"ς":{"ha":673,"x_min":68,"x_max":640,"o":"m 620 617 q 440 651 544 651 q 136 387 136 651 q 330 145 136 195 l 436 115 q 640 -71 640 64 q 341 -258 640 -258 l 341 -197 q 570 -74 570 -197 q 420 55 570 18 l 285 96 q 68 385 68 150 q 440 712 68 712 q 620 678 544 712 l 620 617 z "},"σ":{"ha":866,"x_min":68,"x_max":832,"o":"m 139 359 q 407 61 139 61 q 675 359 675 61 q 414 651 675 651 q 139 359 139 651 m 68 356 q 414 712 68 712 l 832 712 l 832 651 l 621 651 q 746 356 746 564 q 407 1 746 1 q 68 356 69 1 z "},"τ":{"ha":522,"x_min":0,"x_max":471,"o":"m 0 712 l 471 712 l 471 651 l 257 651 l 257 251 q 408 60 257 60 q 423 61 415 60 l 423 0 q 380 -3 401 -3 q 186 251 186 -3 l 186 651 l 0 651 l 0 712 z "},"υ":{"ha":821,"x_min":102,"x_max":719,"o":"m 102 297 l 102 712 l 173 712 l 173 297 q 410 54 173 54 q 648 297 648 54 l 648 712 l 719 712 l 719 297 q 410 -7 719 -7 q 102 297 102 -7 z "},"φ":{"ha":1021,"x_min":68,"x_max":953,"o":"m 190 712 l 275 712 q 139 373 139 559 q 468 47 139 61 l 468 444 q 688 712 468 712 q 953 373 953 712 q 539 -14 953 0 l 539 -258 l 468 -258 l 468 -14 q 68 373 68 0 q 190 712 68 559 m 539 47 q 882 373 882 61 q 690 651 882 651 q 539 444 539 651 l 539 47 z "},"χ":{"ha":712,"x_min":27,"x_max":685,"o":"m 314 227 l 27 712 l 112 712 l 356 299 l 600 712 l 685 712 l 399 227 l 685 -258 l 600 -258 l 356 155 l 112 -258 l 27 -258 l 314 227 z "},"ψ":{"ha":1092,"x_min":102,"x_max":990,"o":"m 510 55 l 510 712 l 582 712 l 582 55 q 919 365 919 70 l 919 712 l 990 712 l 990 365 q 582 -6 990 9 l 582 -258 l 510 -258 l 510 -6 q 102 365 102 9 l 102 712 l 173 712 l 173 365 q 510 55 173 70 z "},"ω":{"ha":1136,"x_min":81,"x_max":1055,"o":"m 170 712 l 241 712 q 153 373 153 559 q 326 61 153 61 q 532 559 532 61 l 604 559 q 810 61 604 61 q 983 373 983 61 q 895 712 983 559 l 966 712 q 1055 373 1055 559 q 810 0 1055 0 q 566 264 604 0 q 326 0 532 0 q 81 373 81 0 q 170 712 81 559 z "},"ϊ":{"ha":315,"x_min":3,"x_max":312,"o":"m 193 712 l 193 0 l 122 0 l 122 712 l 193 712 m 312 956 l 312 868 l 220 868 l 220 956 l 312 956 m 95 956 l 95 868 l 3 868 l 3 956 l 95 956 z "},"ϋ":{"ha":821,"x_min":102,"x_max":719,"o":"m 102 297 l 102 712 l 173 712 l 173 297 q 410 54 173 54 q 648 297 648 54 l 648 712 l 719 712 l 719 297 q 410 -7 719 -7 q 102 297 102 -7 m 565 956 l 565 868 l 473 868 l 473 956 l 565 956 m 348 956 l 348 868 l 256 868 l 256 956 l 348 956 z "},"ό":{"ha":814,"x_min":68,"x_max":746,"o":"m 139 359 q 407 61 139 61 q 675 359 675 61 q 407 651 675 651 q 139 359 139 651 m 68 356 q 407 712 68 712 q 746 356 746 712 q 407 1 746 1 q 68 356 69 1 m 445 970 l 553 970 l 391 808 l 334 808 l 445 970 z "},"ύ":{"ha":821,"x_min":102,"x_max":719,"o":"m 102 297 l 102 712 l 173 712 l 173 297 q 410 54 173 54 q 648 297 648 54 l 648 712 l 719 712 l 719 297 q 410 -7 719 -7 q 102 297 102 -7 m 448 970 l 556 970 l 394 808 l 337 808 l 448 970 z "},"ώ":{"ha":1136,"x_min":81,"x_max":1055,"o":"m 170 712 l 241 712 q 153 373 153 559 q 326 61 153 61 q 532 559 532 61 l 604 559 q 810 61 604 61 q 983 373 983 61 q 895 712 983 559 l 966 712 q 1055 373 1055 559 q 810 0 1055 0 q 566 264 604 0 q 326 0 532 0 q 81 373 81 0 q 170 712 81 559 m 606 970 l 714 970 l 552 808 l 495 808 l 606 970 z "},"":{"ha":1158,"x_min":109,"x_max":1043,"o":"m 541 712 l 541 760 q 806 1019 541 1019 q 996 971 907 1019 l 996 910 q 806 958 911 958 q 612 766 612 958 l 612 712 l 1043 712 l 1043 0 l 972 0 l 972 651 l 612 651 l 612 0 l 540 0 l 540 651 l 180 651 l 180 0 l 109 0 l 109 753 q 334 1012 109 1012 q 462 985 401 1012 l 462 924 q 333 951 405 951 q 180 759 180 951 l 180 712 l 541 712 z "},"":{"ha":1164,"x_min":109,"x_max":1056,"o":"m 540 651 l 180 651 l 180 0 l 109 0 l 109 753 q 334 1012 109 1012 q 462 985 401 1012 l 462 924 q 333 951 405 951 q 180 759 180 951 l 180 712 l 540 712 l 540 760 q 819 1019 540 1019 q 1056 971 934 1019 l 1056 0 l 985 0 l 985 935 q 819 958 904 958 q 611 766 611 958 l 611 712 l 825 712 l 825 651 l 611 651 l 611 0 l 540 0 l 540 651 z "},"":{"ha":903,"x_min":109,"x_max":985,"o":"m 540 651 l 180 651 l 180 0 l 109 0 l 109 747 q 334 1005 109 1005 q 462 978 401 1005 l 462 917 q 333 944 405 944 q 180 752 180 944 l 180 712 l 540 712 l 540 753 q 826 1012 540 1012 q 985 985 913 1012 l 985 924 q 825 951 918 951 q 611 752 611 951 l 611 712 l 879 712 l 879 651 l 611 651 l 611 0 l 540 0 l 540 651 z "},"":{"ha":720,"x_min":109,"x_max":604,"o":"m 533 651 l 180 651 l 180 0 l 109 0 l 109 760 q 374 1019 109 1019 q 564 971 475 1019 l 564 910 q 374 958 479 958 q 180 766 180 958 l 180 712 l 604 712 l 604 54 q 499 -250 604 -161 l 448 -205 q 533 54 533 -148 l 533 651 z "},"":{"ha":1152,"x_min":109,"x_max":1036,"o":"m 540 0 l 540 651 l 180 651 l 180 0 l 109 0 l 109 753 q 334 1012 109 1012 q 462 985 401 1012 l 462 924 q 333 951 405 951 q 180 759 180 951 l 180 712 l 541 712 l 541 760 q 806 1019 541 1019 q 996 971 907 1019 l 996 910 q 806 958 911 958 q 612 766 612 958 l 612 712 l 1036 712 l 1036 54 q 931 -250 1036 -161 l 880 -205 q 965 54 965 -148 l 965 651 l 612 651 l 612 0 l 540 0 z "},"":{"ha":733,"x_min":109,"x_max":1176,"o":"m 625 608 l 625 83 q 829 64 741 64 q 1107 375 1107 64 q 851 644 1107 644 q 625 608 753 644 m 553 935 q 387 958 473 958 q 180 766 180 958 l 180 712 l 393 712 l 393 651 l 180 651 l 180 0 l 109 0 l 109 760 q 388 1019 109 1019 q 625 971 503 1019 l 625 678 q 852 712 760 712 q 1176 370 1176 712 q 835 0 1176 0 q 553 29 682 0 l 553 935 z "},"":{"ha":1682,"x_min":109,"x_max":1607,"o":"m 1056 608 l 1056 83 q 1260 64 1172 64 q 1538 375 1538 64 q 1282 644 1538 644 q 1056 608 1185 644 m 540 651 l 180 651 l 180 0 l 109 0 l 109 753 q 334 1012 109 1012 q 462 985 401 1012 l 462 924 q 333 951 405 951 q 180 759 180 951 l 180 712 l 540 712 l 540 760 q 819 1019 540 1019 q 1056 971 934 1019 l 1056 678 q 1283 712 1191 712 q 1607 370 1607 712 q 1266 0 1607 0 q 985 29 1113 0 l 985 935 q 819 958 904 958 q 611 766 611 958 l 611 712 l 825 712 l 825 651 l 611 651 l 611 0 l 540 0 l 540 651 z "},"":{"ha":1249,"x_min":109,"x_max":1140,"o":"m 553 935 q 387 958 473 958 q 180 766 180 958 l 180 712 l 393 712 l 393 651 l 180 651 l 180 0 l 109 0 l 109 760 q 388 1019 109 1019 q 625 971 503 1019 l 625 635 q 880 712 749 712 q 1140 447 1140 712 l 1140 0 l 1069 0 l 1069 476 q 877 648 1069 648 q 625 558 749 648 l 625 0 l 553 0 l 553 935 z "},"":{"ha":1680,"x_min":109,"x_max":1571,"o":"m 540 651 l 180 651 l 180 0 l 109 0 l 109 753 q 334 1012 109 1012 q 462 985 401 1012 l 462 924 q 333 951 405 951 q 180 759 180 951 l 180 712 l 540 712 l 540 760 q 819 1019 540 1019 q 1056 971 934 1019 l 1056 635 q 1312 712 1181 712 q 1571 447 1571 712 l 1571 0 l 1500 0 l 1500 476 q 1308 648 1500 648 q 1056 558 1180 648 l 1056 0 l 985 0 l 985 935 q 819 958 904 958 q 611 766 611 958 l 611 712 l 825 712 l 825 651 l 611 651 l 611 0 l 540 0 l 540 651 z "},"":{"ha":1198,"x_min":109,"x_max":1175,"o":"m 553 935 q 387 958 473 958 q 180 766 180 958 l 180 712 l 393 712 l 393 651 l 180 651 l 180 0 l 109 0 l 109 760 q 388 1019 109 1019 q 625 971 503 1019 l 625 656 q 905 712 755 712 q 1157 507 1157 712 q 933 294 1157 351 l 1175 0 l 1070 0 l 844 295 l 844 338 q 1086 507 1086 366 q 889 651 1086 651 q 625 587 758 651 l 625 0 l 553 0 l 553 935 z "},"":{"ha":1630,"x_min":109,"x_max":1606,"o":"m 540 651 l 180 651 l 180 0 l 109 0 l 109 753 q 334 1012 109 1012 q 462 985 401 1012 l 462 924 q 333 951 405 951 q 180 759 180 951 l 180 712 l 540 712 l 540 760 q 819 1019 540 1019 q 1056 971 934 1019 l 1056 656 q 1336 712 1187 712 q 1588 507 1588 712 q 1364 294 1588 351 l 1606 0 l 1501 0 l 1275 295 l 1275 338 q 1517 507 1517 366 q 1320 651 1517 651 q 1056 587 1190 651 l 1056 0 l 985 0 l 985 935 q 819 958 904 958 q 611 766 611 958 l 611 712 l 825 712 l 825 651 l 611 651 l 611 0 l 540 0 l 540 651 z "},"":{"ha":865,"x_min":78,"x_max":787,"o":"m 156 359 q 436 54 156 54 q 709 359 709 54 q 436 658 709 658 q 156 359 156 658 m 78 355 q 436 719 78 719 q 787 355 787 719 q 436 -7 787 -7 q 78 355 78 -7 z "},"":{"ha":579,"x_min":71,"x_max":535,"o":"m 275 61 l 275 625 l 78 625 l 78 671 l 346 712 l 346 61 l 535 61 l 535 0 l 71 0 l 71 61 l 275 61 z "},"":{"ha":746,"x_min":71,"x_max":688,"o":"m 71 0 l 71 61 q 583 495 583 330 q 346 658 583 658 q 78 583 210 658 l 78 651 q 346 719 210 719 q 654 495 654 719 q 189 61 654 312 l 688 61 l 688 0 l 71 0 z "},"":{"ha":753,"x_min":68,"x_max":654,"o":"m 68 671 q 332 712 203 712 q 654 481 654 712 q 486 268 654 308 q 654 54 654 231 q 332 -190 654 -190 q 68 -149 203 -190 l 68 -81 q 332 -129 203 -129 q 583 54 583 -129 q 358 237 583 237 l 170 237 l 170 298 l 356 298 q 583 481 583 298 q 332 651 583 651 q 68 604 203 651 l 68 671 z "},"":{"ha":790,"x_min":41,"x_max":749,"o":"m 622 -190 l 551 -190 l 551 20 l 41 20 l 41 81 l 444 711 l 522 711 l 117 81 l 551 81 l 551 446 l 622 446 l 622 81 l 749 56 l 749 20 l 622 20 l 622 -190 z "},"":{"ha":777,"x_min":105,"x_max":709,"o":"m 139 712 l 664 712 l 664 651 l 198 651 l 176 311 q 370 332 302 332 q 709 88 709 332 q 329 -197 709 -197 q 105 -156 207 -197 l 105 -88 q 336 -136 207 -136 q 637 88 637 -136 q 370 271 637 271 q 105 237 237 271 l 139 712 z "},"":{"ha":858,"x_min":81,"x_max":780,"o":"m 81 353 q 528 931 81 709 l 555 871 q 203 574 300 747 q 438 610 319 610 q 780 312 780 610 q 425 -7 780 -7 q 81 353 81 -7 m 146 357 q 431 54 146 54 q 711 312 711 54 q 432 549 711 549 q 178 517 294 549 q 146 357 146 449 z "},"":{"ha":719,"x_min":27,"x_max":658,"o":"m 27 712 l 658 712 l 658 651 l 222 -190 l 134 -190 l 583 651 l 27 651 l 27 712 z "},"":{"ha":848,"x_min":78,"x_max":770,"o":"m 78 254 q 269 478 78 425 q 105 684 105 529 q 424 911 105 911 q 743 684 743 911 q 575 478 743 529 q 770 254 770 425 q 424 -7 770 -7 q 78 254 78 -7 m 427 502 q 671 684 671 502 q 418 848 671 848 q 176 684 176 848 q 427 502 176 502 m 427 54 q 699 256 699 54 q 418 441 699 441 q 149 256 149 441 q 427 54 149 54 z "},"":{"ha":858,"x_min":81,"x_max":780,"o":"m 780 358 q 334 -220 780 1 l 306 -161 q 658 136 562 -36 q 423 100 542 100 q 81 399 81 100 q 436 718 81 718 q 780 358 780 718 m 715 354 q 430 656 715 656 q 150 399 150 656 q 429 161 150 161 q 683 194 568 161 q 715 354 715 262 z "},"":{"ha":770,"x_min":61,"x_max":736,"o":"m 380 712 q 545 678 479 712 l 630 712 l 736 712 l 736 651 l 590 651 q 668 479 667 591 q 371 241 668 241 q 244 261 308 241 q 153 136 153 198 q 240 81 153 81 l 507 81 q 709 -71 709 81 q 375 -271 709 -271 q 61 -210 204 -271 l 61 -136 q 378 -210 206 -210 q 637 -71 637 -210 q 509 20 637 20 l 236 20 q 85 138 85 20 q 184 285 85 209 q 81 473 81 353 q 380 712 81 712 m 153 478 q 376 305 153 305 q 597 478 597 305 q 376 651 597 651 q 153 478 153 651 z "},"":{"ha":770,"x_min":61,"x_max":736,"o":"m 380 712 q 545 678 479 712 l 630 712 l 736 712 l 736 651 l 590 651 q 668 479 667 591 q 371 241 668 241 q 244 261 308 241 q 153 136 153 198 q 240 81 153 81 l 507 81 q 709 -71 709 81 q 375 -271 709 -271 q 61 -210 204 -271 l 61 -136 q 378 -210 206 -210 q 637 -71 637 -210 q 509 20 637 20 l 236 20 q 85 138 85 20 q 184 285 85 209 q 81 473 81 353 q 380 712 81 712 m 153 478 q 376 305 153 305 q 597 478 597 305 q 376 651 597 651 q 153 478 153 651 m 347 970 l 422 970 l 554 793 l 486 793 l 383 925 l 283 793 l 215 793 l 347 970 z "},"":{"ha":770,"x_min":61,"x_max":736,"o":"m 380 712 q 545 678 479 712 l 630 712 l 736 712 l 736 651 l 590 651 q 668 479 667 591 q 371 241 668 241 q 244 261 308 241 q 153 136 153 198 q 240 81 153 81 l 507 81 q 709 -71 709 81 q 375 -271 709 -271 q 61 -210 204 -271 l 61 -136 q 378 -210 206 -210 q 637 -71 637 -210 q 509 20 637 20 l 236 20 q 85 138 85 20 q 184 285 85 209 q 81 473 81 353 q 380 712 81 712 m 153 478 q 376 305 153 305 q 597 478 597 305 q 376 651 597 651 q 153 478 153 651 m 206 970 l 264 970 q 379 848 264 848 q 494 970 494 848 l 552 970 q 379 793 552 793 q 206 970 206 793 z "},"":{"ha":770,"x_min":61,"x_max":736,"o":"m 380 712 q 545 678 479 712 l 630 712 l 736 712 l 736 651 l 590 651 q 668 479 667 591 q 371 241 668 241 q 244 261 308 241 q 153 136 153 198 q 240 81 153 81 l 507 81 q 709 -71 709 81 q 375 -271 709 -271 q 61 -210 204 -271 l 61 -136 q 378 -210 206 -210 q 637 -71 637 -210 q 509 20 637 20 l 236 20 q 85 138 85 20 q 184 285 85 209 q 81 473 81 353 q 380 712 81 712 m 153 478 q 376 305 153 305 q 597 478 597 305 q 376 651 597 651 q 153 478 153 651 m 429 970 l 429 868 l 317 868 l 317 970 l 429 970 z "},"":{"ha":770,"x_min":61,"x_max":736,"o":"m 380 712 q 545 678 479 712 l 630 712 l 736 712 l 736 651 l 590 651 q 668 479 667 591 q 371 241 668 241 q 244 261 308 241 q 153 136 153 198 q 240 81 153 81 l 507 81 q 709 -71 709 81 q 375 -271 709 -271 q 61 -210 204 -271 l 61 -136 q 378 -210 206 -210 q 637 -71 637 -210 q 509 20 637 20 l 236 20 q 85 138 85 20 q 184 285 85 209 q 81 473 81 353 q 380 712 81 712 m 153 478 q 376 305 153 305 q 597 478 597 305 q 376 651 597 651 q 153 478 153 651 m 477 970 l 376 780 l 304 780 l 406 970 l 477 970 z "},"":{"ha":680,"x_min":102,"x_max":680,"o":"m 675 712 l 343 386 l 680 0 l 580 0 l 279 356 l 279 406 l 582 712 l 675 712 m 102 0 l 102 970 l 173 970 l 173 0 l 102 0 z "},"":{"ha":680,"x_min":102,"x_max":680,"o":"m 102 0 l 102 970 l 173 970 l 173 0 l 102 0 m 404 -68 l 302 -258 l 231 -258 l 333 -68 l 404 -68 m 675 712 l 343 386 l 680 0 l 580 0 l 279 356 l 279 406 l 582 712 l 675 712 z "},"":{"ha":1025,"x_min":109,"x_max":950,"o":"m 109 0 l 109 624 q 559 983 109 983 q 936 922 731 983 l 936 868 l 593 529 l 633 529 q 950 285 950 529 q 622 -1 950 -1 q 390 46 503 -1 l 390 107 q 623 60 510 60 q 879 285 879 60 q 625 469 879 469 l 505 469 l 505 522 l 859 876 q 559 922 698 922 q 180 624 180 922 l 180 0 l 109 0 z "}}}
